<?xml version="1.0" standalone="no"?>
<!DOCTYPE svg PUBLIC "-//W3C//DTD SVG 1.1//EN" "http://www.w3.org/Graphics/SVG/1.1/DTD/svg11.dtd" >
<svg xmlns="http://www.w3.org/2000/svg" xmlns:xlink="http://www.w3.org/1999/xlink" version="1.1">
<metadata>
Created by FontForge 20200511 at Fri Dec 25 13:16:01 2020
 By convertio
Copyright 2019 Google LLC. All Rights Reserved.
</metadata>
<defs>
<font id="NotoSansTelugu-Regular" horiz-adv-x="0" >
  <font-face 
    font-family="Noto Sans Telugu"
    font-weight="400"
    font-stretch="normal"
    units-per-em="1000"
    panose-1="2 11 5 2 4 5 4 2 2 4"
    ascent="800"
    descent="-200"
    bbox="-1271 -476 1749 869"
    underline-thickness="50"
    underline-position="-125"
    unicode-range="U+000D-25CC"
  />
<missing-glyph horiz-adv-x="600" 
d="M94 0v714h411v-714h-411zM145 51h309v612h-309v-612z" />
    <glyph glyph-name=".notdef" horiz-adv-x="600" 
d="M94 0v714h411v-714h-411zM145 51h309v612h-309v-612z" />
    <glyph glyph-name="NULL" 
 />
    <glyph glyph-name="NULL" 
 />
    <glyph glyph-name="CR" unicode="&#xd;" horiz-adv-x="283" 
 />
    <glyph glyph-name="space" unicode=" " horiz-adv-x="283" 
 />
    <glyph glyph-name="uni0C00" unicode="&#xc00;" 
d="M-286 598q-84 0 -129 40.5t-45 114.5q0 29 8 55l68 -14q-3 -10 -4 -20.5t-1 -18.5q0 -36 14.5 -56t38.5 -28t50 -8q41 0 72 21t31 73q0 8 -1 17.5t-4 19.5l69 14q3 -12 5 -27t2 -28q0 -73 -46.5 -114t-127.5 -41zM-287 705q-22 0 -36 14t-14 37q0 21 14 35.5t36 14.5
t36.5 -14.5t14.5 -35.5q0 -23 -14.5 -37t-36.5 -14z" />
    <glyph glyph-name="candrabindutelu" unicode="&#xc01;" horiz-adv-x="298" 
d="M33 208q0 70 31 119t86.5 75t127.5 26h4v-76q-77 0 -122 -36t-45 -109q0 -63 40.5 -103t126.5 -40v-76h-3q-74 0 -129.5 26.5t-86 75.5t-30.5 118z" />
    <glyph glyph-name="anusvaratelu" unicode="&#xc02;" horiz-adv-x="507" 
d="M33 208q0 63 27.5 112.5t77.5 78.5t115 29q66 0 116 -28.5t77.5 -78.5t27.5 -113t-27 -112.5t-76.5 -78.5t-117.5 -29q-67 0 -116.5 29t-76.5 79t-27 112zM115 209q0 -60 35 -101.5t103 -41.5q69 0 104 41.5t35 101.5q0 59 -36.5 100t-102.5 41t-102 -41t-36 -100z" />
    <glyph glyph-name="visargatelu" unicode="&#xc03;" horiz-adv-x="296" 
d="M28 383q0 50 33 83.5t87 33.5t87 -33.5t33 -83.5q0 -49 -32 -82t-88 -33q-55 0 -87.5 33t-32.5 82zM94 384q0 -22 13.5 -37.5t40.5 -15.5t40.5 15.5t13.5 37.5q0 23 -14 38t-40 15q-25 0 -39.5 -15t-14.5 -38zM28 104q0 50 33 83t87 33t87 -33t33 -83t-32 -83t-88 -33
q-55 0 -87.5 33.5t-32.5 82.5zM94 104q0 -22 13.5 -37.5t40.5 -15.5t40.5 15.5t13.5 37.5q0 23 -14 38t-40 15q-25 0 -39.5 -15t-14.5 -38z" />
    <glyph glyph-name="uni0C04" unicode="&#xc04;" 
d="M-406 713q0 50 33 83.5t87 33.5t87 -33.5t33 -83.5q0 -49 -32 -82t-88 -33q-55 0 -87.5 33t-32.5 82zM-340 714q0 -22 13.5 -37.5t40.5 -15.5t40.5 15.5t13.5 37.5q0 23 -14 38t-40 15q-25 0 -39.5 -15t-14.5 -38z" />
    <glyph glyph-name="atelu" unicode="&#xc05;" horiz-adv-x="800" 
d="M390 -12q-120 0 -198.5 37.5t-117 102.5t-38.5 145q0 72 25 123t67.5 77.5t96.5 26.5q60 0 96 -34t36 -93q0 -61 -38 -99.5t-117 -38.5q-25 0 -46.5 6.5t-40.5 15.5q4 -49 33 -92.5t88 -70.5t154 -27q148 0 220 52.5t72 165.5q0 37 -11 68.5t-33.5 51.5t-57.5 20
q-23 0 -42.5 -15.5t-19.5 -49.5q0 -39 26 -64.5t68 -39.5v-72h-309v74h197q-61 38 -61 116q0 30 15 59t47.5 48t82.5 19q52 0 92.5 -28t64.5 -76.5t24 -111.5q0 -151 -99.5 -223.5t-275.5 -72.5zM220 429q-38 0 -65 -26t-36 -74q14 -10 33.5 -17t44.5 -7q40 0 60.5 17
t20.5 47q0 29 -16 44.5t-42 15.5z" />
    <glyph glyph-name="aatelu" unicode="&#xc06;" horiz-adv-x="798" 
d="M423 -12q-138 0 -223 37.5t-124.5 102.5t-39.5 145q0 72 25 123t67.5 77.5t96.5 26.5q60 0 96 -34t36 -93q0 -61 -38 -99.5t-117 -38.5q-25 0 -46.5 6.5t-40.5 15.5q3 -49 32.5 -92.5t95.5 -70.5t180 -27q119 0 181.5 28t62.5 76q0 18 -12 33q-25 -11 -50.5 -15.5
t-54.5 -4.5h-247v74h250q-41 16 -67 46.5t-26 73.5q0 58 43 90t104 32q56 0 91 -20t51.5 -52t16.5 -68q0 -35 -13.5 -64t-35.5 -51q15 -14 24 -33t9 -43q0 -30 -13 -62t-47.5 -59t-99 -43.5t-167.5 -16.5zM220 429q-38 0 -65 -26t-36 -74q14 -10 33.5 -17t44.5 -7
q40 0 60.5 17t20.5 47q0 29 -16 44.5t-42 15.5zM645 285q2 -1 4 -1q15 13 24.5 31t9.5 42q0 29 -17.5 50t-55.5 21q-33 0 -51.5 -15t-18.5 -40q0 -34 31 -54t74 -34z" />
    <glyph glyph-name="itelu" unicode="&#xc07;" horiz-adv-x="689" 
d="M300 -12q-108 0 -157.5 39t-49.5 105q0 63 51 100t148 37q82 0 144.5 -29t103.5 -73q31 48 31 119q0 73 -29 104t-73 31t-69.5 -30t-33.5 -73h-78q-18 107 -104 107q-37 0 -54.5 -17.5t-17.5 -43.5q0 -16 4.5 -32.5t9.5 -26.5l-76 -22q-8 17 -14.5 38.5t-6.5 50.5
q0 39 20.5 67.5t55 44.5t76.5 16q51 0 85.5 -20.5t60.5 -65.5q30 51 69 68.5t80 17.5q51 0 91 -25.5t63.5 -73t23.5 -114.5q0 -60 -17.5 -106t-50.5 -82q23 -48 23 -99q0 -25 -4 -49.5t-14 -47.5l-73 15q7 17 10.5 38t3.5 48q0 24 -6 46q-43 -29 -97 -45.5t-129 -16.5z
M176 132q0 -33 30 -51t96 -18q57 0 106 13t83 39q-30 36 -81 57.5t-118 21.5q-57 0 -86.5 -16.5t-29.5 -45.5z" />
    <glyph glyph-name="iitelu" unicode="&#xc08;" horiz-adv-x="994" 
d="M826 27q-49 0 -80 19t-45.5 47t-14.5 55q0 26 9 47.5t25 37.5h-104q-1 -73 -33.5 -128.5t-91 -86t-137.5 -30.5t-137.5 30.5t-91 86t-32.5 128.5h-63v72h70q26 114 124 165q-13 16 -24 39t-20 55l83 27q15 -55 29 -73t36 -18q20 0 37.5 12.5t49.5 52.5l31 40
q34 44 62.5 70t60.5 38t76 12l6 -77q-35 -2 -58.5 -11t-43 -28.5t-45.5 -52.5l-23 -30q-18 -23 -34 -40q63 -20 105.5 -67t56.5 -114h143q41 0 71 -4q29 15 42.5 32.5t13.5 35.5q0 21 -12.5 34.5t-36.5 13.5q-27 0 -44 -15.5t-33 -39.5l-72 28q23 40 58 66.5t89 26.5
q56 0 91 -29t35 -79q0 -32 -14.5 -55.5t-38.5 -41.5q9 -5 17 -12q21 -17 33.5 -44t12.5 -65q0 -61 -36.5 -95.5t-101.5 -34.5zM354 425q-74 0 -116.5 -34.5t-56.5 -85.5h346q-15 53 -57.5 86.5t-115.5 33.5zM354 67q90 0 134 47t47 119h-361q4 -75 48 -120.5t132 -45.5z
M759 154q0 -31 18.5 -46t48.5 -15q33 0 49 18t16 46q0 36 -20.5 54t-55.5 21q-30 -16 -43 -35.5t-13 -42.5z" />
    <glyph glyph-name="utelu" unicode="&#xc09;" horiz-adv-x="798" 
d="M552 -12q-78 0 -123 23t-71 62q-32 -53 -71.5 -69t-85.5 -16q-74 0 -120 55t-46 151q0 133 81.5 212.5t222.5 91.5l-6 126h90l-7 -125q70 -3 125.5 -23.5t106.5 -51.5l-49 -66q-51 33 -100.5 50t-115.5 17q-173 0 -238 -107h627v-72h-144q41 -12 65 -43t24 -77
q0 -67 -47.5 -102.5t-117.5 -35.5zM116 197q0 -70 25.5 -100t71.5 -30q49 0 76 32.5t31 85.5h78q2 -32 13 -58t34 -41q-4 12 -7 24t-3 25q0 45 22 72.5t61 38.5h-398q-4 -23 -4 -49zM505 124q0 -17 5 -32.5t13 -27.5q15 -1 33 -1q81 0 81 66q0 31 -18.5 45t-47.5 14
q-27 0 -46.5 -14.5t-19.5 -49.5z" />
    <glyph glyph-name="uutelu" unicode="&#xc0a;" horiz-adv-x="1095" 
d="M552 -12q-78 0 -123 23t-71 62q-32 -53 -71.5 -69t-85.5 -16q-74 0 -120 55t-46 151q0 111 57.5 185t159.5 103l-7 142h90l-7 -127q29 3 61 3q19 0 38 -1l-6 125h90l-8 -137q40 -10 76 -26t69 -37l-49 -66q-51 33 -100.5 50t-115.5 17q-173 0 -238 -107h708q41 0 71 -4
q29 15 42.5 32.5t13.5 35.5q0 21 -12.5 34.5t-36.5 13.5q-27 0 -44 -15.5t-33 -39.5l-72 28q23 40 58 66.5t89 26.5q56 0 91 -29t35 -79q0 -31 -14.5 -55t-38.5 -42q9 -5 17 -12q21 -17 33.5 -44t12.5 -65q0 -61 -36.5 -95.5t-101.5 -34.5q-49 0 -80 19t-45.5 47t-14.5 55
q0 26 9 47.5t25 37.5h-193q41 -12 65 -43t24 -77q0 -67 -47.5 -102.5t-117.5 -35.5zM116 197q0 -70 25.5 -100t71.5 -30q49 0 76 32.5t31 85.5h78q2 -32 13 -58t34 -41q-4 12 -7 24t-3 25q0 45 22 72.5t61 38.5h-398q-4 -23 -4 -49zM860 167q0 -31 18.5 -46t48.5 -15
q33 0 49 18t16 46q0 36 -20.5 54t-55.5 21q-30 -16 -43 -35.5t-13 -42.5zM505 124q0 -17 5 -32.5t13 -27.5q15 -1 33 -1q81 0 81 66q0 31 -18.5 45t-47.5 14q-27 0 -46.5 -14.5t-19.5 -49.5z" />
    <glyph glyph-name="rvocalictelu" unicode="&#xc0b;" horiz-adv-x="1442" 
d="M533 -12q-52 0 -89.5 18.5t-68.5 67.5q-37 -52 -76.5 -69t-93.5 -17q-55 0 -91.5 19.5t-54.5 52t-18 70.5q0 61 37.5 97t110.5 62q41 15 65 32t24 50q0 23 -16.5 39.5t-58.5 16.5q-43 0 -64 -16.5t-21 -45.5q0 -13 3.5 -24t6.5 -18l-75 -21q-17 31 -17 73q0 32 17 60.5
t54 46.5t96 18q60 0 94 -20t48.5 -50t14.5 -60q0 -57 -33.5 -89t-99.5 -56q-53 -20 -78.5 -40.5t-25.5 -53.5q0 -29 20.5 -46.5t63.5 -17.5q62 0 93.5 32.5t35.5 85.5h78q5 -61 37 -89.5t74 -28.5q107 0 107 126q0 58 -23.5 101.5t-63 75t-89.5 53.5l37 77q62 -26 112 -70
t80 -102t30 -129q0 -101 -49.5 -156t-132.5 -55zM866 -12q-67 0 -117.5 34t-89.5 89l40 65q42 -55 83.5 -82t90.5 -27q51 0 78 32.5t27 93.5q0 58 -23.5 101.5t-63 75t-89.5 53.5l37 77q62 -26 112 -70t80 -102t30 -129q0 -99 -50 -155t-145 -56zM1212 -12q-67 0 -117.5 34
t-89.5 89l40 65q42 -55 83.5 -82t90.5 -27q51 0 78 32.5t27 93.5q0 58 -23.5 101.5t-63 75t-89.5 53.5l37 77q62 -26 112 -70t80 -102t30 -129q0 -99 -50 -155t-145 -56z" />
    <glyph glyph-name="lvocalictelu" unicode="&#xc0c;" horiz-adv-x="882" 
d="M559 -75q-92 0 -138.5 44.5t-46.5 114.5q0 48 23 88t63 83q28 31 44.5 56t16.5 53q0 25 -17 42.5t-51 17.5q-46 0 -74.5 -32.5t-32.5 -88.5h-78q-3 62 -28.5 92t-63.5 30q-33 0 -48.5 -17.5t-15.5 -43.5q0 -25 6.5 -42.5t16.5 -34.5l-76 -24q-12 23 -21 50.5t-9 58.5
q0 59 41.5 93.5t99.5 34.5q48 0 80.5 -20t56.5 -66q27 44 63 65t87 21q54 0 85.5 -20t45 -50t13.5 -60q0 -50 -23.5 -86.5t-51.5 -68.5q-34 -37 -51.5 -65.5t-17.5 -62.5q0 -37 25 -60t80 -23q69 0 113.5 32t66 83.5t21.5 108.5q0 64 -29.5 117.5t-91.5 87.5l53 67
q77 -46 114 -115t37 -158q0 -92 -38.5 -160t-103.5 -105t-145 -37z" />
    <glyph glyph-name="etelu" unicode="&#xc0e;" horiz-adv-x="711" 
d="M485 -12q-54 0 -92 22t-72 61q-27 -37 -59.5 -60t-86.5 -23q-53 0 -85 22t-46.5 56.5t-14.5 71.5q0 65 41 104.5t100 39.5q36 0 64 -12.5t55 -39t59 -69.5q27 -35 48 -56t43 -29.5t51 -8.5q50 0 76.5 32t26.5 101q0 70 -28 135t-77 121t-112.5 101t-133.5 75l38 80
q69 -29 139 -77.5t128 -114t93.5 -146.5t35.5 -176q0 -99 -50 -154.5t-141 -55.5zM107 136q0 -31 19.5 -52t53.5 -21q32 0 54 18t38 52q-29 39 -49.5 56.5t-50.5 17.5q-28 0 -46.5 -18t-18.5 -53z" />
    <glyph glyph-name="eetelu" unicode="&#xc0f;" horiz-adv-x="711" 
d="M114 687q0 66 38 105t97 39q22 0 39.5 -3.5t29.5 -8.5l-29 -71q-7 2 -16 4t-19 2q-28 0 -43 -18.5t-15 -47.5q0 -40 15 -73.5t40 -68.5l-77 -34q-23 38 -41.5 81.5t-18.5 93.5zM485 -12q-54 0 -92 22t-72 61q-27 -37 -59.5 -60t-86.5 -23q-53 0 -85 22t-46.5 56.5
t-14.5 71.5q0 65 41 104.5t100 39.5q36 0 64 -12.5t55 -39t59 -69.5q27 -35 48 -56t43 -29.5t51 -8.5q50 0 76.5 32t26.5 101q0 70 -28 135t-77 121t-112.5 101t-133.5 75l38 80q69 -29 139 -77.5t128 -114t93.5 -146.5t35.5 -176q0 -99 -50 -154.5t-141 -55.5zM107 136
q0 -31 19.5 -52t53.5 -21q32 0 54 18t38 52q-29 39 -49.5 56.5t-50.5 17.5q-28 0 -46.5 -18t-18.5 -53z" />
    <glyph glyph-name="aitelu" unicode="&#xc10;" horiz-adv-x="727" 
d="M496 -12q-54 0 -92 22t-72 61q-27 -37 -59.5 -60t-86.5 -23q-53 0 -85 22t-46.5 56.5t-14.5 71.5q0 65 41 104.5t100 39.5q36 0 64 -12.5t55 -39t59 -69.5q28 -36 48.5 -56.5t42.5 -29t51 -8.5q53 0 80.5 38t27.5 123q0 49 -13 93t-41 72t-74 28q-48 0 -74.5 -30
t-34.5 -73h-78q-18 107 -104 107q-37 0 -54 -16.5t-17 -43.5q0 -22 9 -42l-76 -21q-7 16 -11.5 34t-4.5 39q0 58 43.5 91.5t105.5 33.5q52 0 87 -20.5t61 -65.5q31 50 70.5 68t84.5 18q69 0 114 -37t67 -98.5t22 -133.5q0 -120 -50 -181.5t-145 -61.5zM118 136q0 -31 19 -52
t53 -21q33 0 55 18t38 52q-29 39 -49.5 56.5t-50.5 17.5q-28 0 -46.5 -18t-18.5 -53z" />
    <glyph glyph-name="otelu" unicode="&#xc12;" horiz-adv-x="731" 
d="M530 -12q-53 0 -90 20t-65 66q-37 -52 -76.5 -69t-93.5 -17q-55 0 -91.5 19.5t-54.5 52t-18 70.5q0 61 37.5 97t110.5 62q41 15 65 32t24 50q0 23 -16.5 39.5t-58.5 16.5q-43 0 -64 -16.5t-21 -45.5q0 -13 3.5 -24t6.5 -18l-75 -21q-17 31 -17 73q0 32 17 60.5t54 46.5
t96 18q60 0 94 -20t48.5 -50t14.5 -60q0 -57 -33.5 -89t-99.5 -56q-53 -20 -78.5 -40.5t-25.5 -53.5q0 -29 20.5 -46.5t63.5 -17.5q62 0 93.5 32.5t35.5 85.5h78q4 -61 36 -89.5t77 -28.5q50 0 70.5 20.5t20.5 54.5q0 39 -22.5 67t-57.5 50l53 67q60 -40 85 -88t25 -88
q0 -84 -47 -123t-124 -39z" />
    <glyph glyph-name="ootelu" unicode="&#xc13;" horiz-adv-x="731" 
d="M530 -12q-53 0 -90 20t-65 66q-37 -52 -76.5 -69t-93.5 -17q-55 0 -91.5 19.5t-54.5 52t-18 70.5q0 61 37.5 97t110.5 62q41 15 65 32t24 50q0 23 -16.5 39.5t-58.5 16.5q-43 0 -64 -16.5t-21 -45.5q0 -13 3.5 -24t6.5 -18l-75 -21q-17 31 -17 73q0 32 17 60.5t54 46.5
t96 18q60 0 94 -20t48.5 -50t14.5 -60q0 -57 -33.5 -89t-99.5 -56q-53 -20 -78.5 -40.5t-25.5 -53.5q0 -29 20.5 -46.5t63.5 -17.5q62 0 93.5 32.5t35.5 85.5h78q4 -61 36 -89.5t77 -28.5q50 0 70.5 20.5t20.5 54.5q0 39 -22.5 67t-57.5 50l53 67q60 -40 85 -88t25 -88
q0 -84 -47 -123t-124 -39zM230 663q61 0 95.5 -25.5t51.5 -70.5l-76 -20q-8 23 -24.5 36.5t-45.5 13.5q-27 0 -47 -14t-20 -41q0 -14 9.5 -31.5t39.5 -37.5l-74 -28q-27 25 -38.5 50t-11.5 55q0 53 40 83t101 30z" />
    <glyph glyph-name="autelu" unicode="&#xc14;" horiz-adv-x="731" 
d="M530 -12q-53 0 -90 20t-65 66q-37 -52 -76.5 -69t-93.5 -17q-55 0 -91.5 19.5t-54.5 52t-18 70.5q0 61 37.5 97t110.5 62q41 15 65 32t24 50q0 23 -16.5 39.5t-58.5 16.5q-43 0 -64 -16.5t-21 -45.5q0 -13 3.5 -24t6.5 -18l-75 -21q-17 31 -17 73q0 27 12.5 52t38.5 43
v30h87q32 0 48.5 3.5t26.5 11.5q15 14 15 37q0 27 -16 40q-10 8 -25 12t-50 4h-147v75h489q68 0 105 -8t64 -30q21 -16 34 -43.5t13 -65.5q0 -63 -38 -98t-103 -35q-50 0 -80 19t-43.5 47.5t-13.5 57.5q0 25 6 44.5t16 36.5h-139q5 -11 7.5 -25t2.5 -30q0 -27 -10 -49
t-23 -35q25 -20 36 -46.5t11 -52.5q0 -57 -33.5 -89t-99.5 -56q-53 -20 -78.5 -40.5t-25.5 -53.5q0 -29 20.5 -46.5t63.5 -17.5q62 0 93.5 32.5t35.5 85.5h78q4 -61 36 -89.5t77 -28.5q50 0 70.5 20.5t20.5 54.5q0 39 -22.5 67t-57.5 50l53 67q60 -40 85 -88t25 -88
q0 -84 -47 -123t-124 -39zM526 536q0 -30 17.5 -48.5t50.5 -18.5q35 0 49.5 18.5t14.5 45.5q0 42 -25.5 58.5t-71.5 16.5h-9q-26 -34 -26 -72z" />
    <glyph glyph-name="katelu" unicode="&#xc15;" horiz-adv-x="522" 
d="M264 -12q-97 0 -162.5 40t-83.5 118l86 23q14 -46 49.5 -74t113.5 -28q79 0 110 20.5t31 53.5q0 30 -23.5 49t-87.5 23l-65 5q-52 4 -89.5 12.5t-61.5 27.5q-21 16 -32.5 40.5t-11.5 58.5q0 62 53.5 102.5t161.5 40.5q66 0 110.5 -12.5t74 -43t47.5 -84.5l-86 -22
q-13 44 -45 65.5t-101 21.5q-76 0 -104 -19t-28 -48q0 -27 22.5 -42.5t88.5 -20.5l77 -5q52 -4 84.5 -15t53.5 -28q23 -19 34 -46t11 -59q0 -75 -57 -114.5t-170 -39.5zM234 425q-29 0 -55.5 11t-48.5 41.5t-38 86.5l83 27q15 -55 29 -73t36 -18q20 0 37.5 12.5t49.5 52.5
l31 40q34 44 62.5 70t60.5 38t76 12l6 -77q-35 -2 -58.5 -11t-43 -28.5t-45.5 -52.5l-23 -30q-42 -54 -78 -77.5t-81 -23.5z" />
    <glyph glyph-name="khatelu" unicode="&#xc16;" horiz-adv-x="755" 
d="M518 -12q-51 0 -92 16t-87 47q-32 -30 -74 -46.5t-90 -16.5q-55 0 -86.5 16.5t-45.5 42.5t-14 54q0 46 35.5 77t100.5 31q40 0 78 -15t81 -43q16 39 16 93q0 40 -7.5 75t-28.5 63q2 -10 2 -21q0 -55 -36.5 -88.5t-97.5 -33.5q-36 0 -67 15t-50 44t-19 70q0 55 41.5 93.5
t113.5 38.5q65 0 109 -24t70.5 -62t38.5 -82t12 -83t-9 -74t-26 -65q32 -21 62.5 -32t71.5 -11q59 0 88 32t29 93q0 58 -23 101.5t-63 75.5t-90 54l38 77q62 -26 112 -70t79.5 -102.5t29.5 -129.5q0 -99 -55 -154.5t-147 -55.5zM112 369q0 -27 15.5 -44t46.5 -17
q30 0 49.5 14.5t19.5 48.5q0 30 -15 56q-19 5 -40 5q-37 0 -56.5 -18t-19.5 -45zM105 102q0 -17 17 -28t54 -11q63 0 103 30q-30 22 -57 33.5t-58 11.5q-32 0 -45.5 -11t-13.5 -25zM298 -125l7 141h75l8 -141h-90z" />
    <glyph glyph-name="gatelu" unicode="&#xc17;" horiz-adv-x="583" 
d="M294 500q117 0 183 -65t66 -180q0 -63 -12 -111t-29.5 -85t-36.5 -67l-83 37q19 28 37 58t29.5 68.5t11.5 89.5q0 49 -16 90t-53.5 65.5t-101.5 24.5q-76 0 -121 -47t-45 -132q0 -68 22 -119.5t56 -97.5l-83 -37q-34 52 -56 116t-22 137q0 69 28.5 127t85 93t140.5 35z
M264 425q-29 0 -55.5 11t-48.5 41.5t-38 86.5l83 27q15 -55 29 -73t36 -18q20 0 37.5 12.5t49.5 52.5l31 40q34 44 62.5 70t60.5 38t76 12l6 -77q-35 -2 -58.5 -11t-43 -28.5t-45.5 -52.5l-23 -30q-42 -54 -78 -77.5t-81 -23.5z" />
    <glyph glyph-name="ghatelu" unicode="&#xc18;" horiz-adv-x="1058" 
d="M485 -12q-54 0 -92 22t-72 61q-27 -37 -59.5 -60t-86.5 -23q-53 0 -85 22t-46.5 56.5t-14.5 71.5q0 65 41 104.5t100 39.5q36 0 64 -12.5t55 -39t59 -69.5q27 -35 48 -56t43 -29.5t51 -8.5q50 0 76.5 32.5t26.5 93.5q0 58 -23 101.5t-63 75t-90 53.5l38 77
q62 -26 112 -70t79.5 -102.5t29.5 -129.5q0 -20 -2 -38q38 -47 77 -70t84 -23q51 0 78 32.5t27 93.5q0 58 -23.5 101.5t-63 75t-89.5 53.5l37 77q62 -26 112 -70t80 -102t30 -129q0 -99 -50 -155t-145 -56q-55 0 -99.5 24t-79.5 64q-48 -88 -164 -88zM107 136
q0 -31 19.5 -52t53.5 -21q32 0 54 18t38 52q-29 39 -49.5 56.5t-50.5 17.5q-28 0 -46.5 -18t-18.5 -53zM280 -125l7 141h75l8 -141h-90zM197 425q-29 0 -55.5 11t-48.5 41.5t-38 86.5l83 27q15 -55 29 -73t36 -18q20 0 37.5 12.5t49.5 52.5l31 40q34 44 62.5 70t60.5 38
t76 12l6 -77q-35 -2 -58.5 -11t-43 -28.5t-45.5 -52.5l-23 -30q-42 -54 -78 -77.5t-81 -23.5z" />
    <glyph glyph-name="ngatelu" unicode="&#xc19;" horiz-adv-x="731" 
d="M530 -12q-53 0 -90 20t-65 66q-37 -52 -76.5 -69t-93.5 -17q-55 0 -91.5 19.5t-54.5 52t-18 70.5q0 61 37.5 97t110.5 62q41 15 65 32t24 50q0 23 -16.5 39.5t-58.5 16.5q-43 0 -64 -16.5t-21 -45.5q0 -13 3.5 -24t6.5 -18l-75 -21q-17 31 -17 73q0 32 17 60.5t54 46.5
t96 18q60 0 94 -20t48.5 -50t14.5 -60v-13h99l-7 143h93l-7 -143h127v-72h-335q-16 -19 -42 -33t-61 -27q-53 -20 -78.5 -40.5t-25.5 -53.5q0 -29 20.5 -46.5t63.5 -17.5q62 0 93.5 32.5t35.5 85.5h78q4 -61 36 -89.5t77 -28.5q50 0 70.5 20t20.5 55q0 23 -7 42t-18 37
l74 31q15 -22 24.5 -53.5t9.5 -63.5q0 -69 -44.5 -108t-126.5 -39z" />
    <glyph glyph-name="catelu" unicode="&#xc1a;" horiz-adv-x="760" 
d="M543 -12q-58 0 -92.5 20t-65.5 66q-32 -51 -70.5 -68.5t-86.5 -17.5q-73 0 -117.5 43t-44.5 113q0 28 14 59.5t45 54.5h-100v74h234v-71q-60 -13 -86 -43t-26 -69q0 -37 23 -59.5t63 -22.5q50 0 79.5 32.5t33.5 85.5h77q5 -61 38.5 -89.5t73.5 -28.5q28 0 52.5 10
t39.5 37t15 78q0 55 -21 97t-55.5 71t-77.5 45.5t-86 20.5q-7 -1 -15 -1q-29 0 -55.5 11t-48.5 41.5t-38 86.5l83 27q15 -55 29 -73t36 -18q20 0 37.5 12.5t49.5 52.5l31 40q34 44 62.5 70t60.5 38t76 12l6 -77q-35 -2 -58.5 -11t-43 -28.5t-45.5 -52.5l-23 -30
q-20 -26 -38 -44q107 -36 162 -113.5t55 -174.5q0 -70 -24 -115.5t-65 -68t-93 -22.5z" />
    <glyph glyph-name="chatelu" unicode="&#xc1b;" horiz-adv-x="760" 
d="M543 -12q-58 0 -92.5 20t-65.5 66q-32 -51 -70.5 -68.5t-86.5 -17.5q-73 0 -117.5 43t-44.5 113q0 28 14 59.5t45 54.5h-100v74h234v-71q-60 -13 -86 -43t-26 -69q0 -37 23 -59.5t63 -22.5q50 0 79.5 32.5t33.5 85.5h77q5 -61 38.5 -89.5t73.5 -28.5q28 0 52.5 10
t39.5 37t15 78q0 55 -21 97t-55.5 71t-77.5 45.5t-86 20.5q-7 -1 -15 -1q-29 0 -55.5 11t-48.5 41.5t-38 86.5l83 27q15 -55 29 -73t36 -18q20 0 37.5 12.5t49.5 52.5l31 40q34 44 62.5 70t60.5 38t76 12l6 -77q-35 -2 -58.5 -11t-43 -28.5t-45.5 -52.5l-23 -30
q-20 -26 -38 -44q107 -36 162 -113.5t55 -174.5q0 -70 -24 -115.5t-65 -68t-93 -22.5zM340 -125l7 141h75l8 -141h-90z" />
    <glyph glyph-name="jatelu" unicode="&#xc1c;" horiz-adv-x="731" 
d="M530 -12q-53 0 -90 20t-65 66q-37 -52 -76.5 -69t-93.5 -17q-55 0 -91.5 19.5t-54.5 52t-18 70.5q0 61 37.5 97t110.5 62q41 15 65 32t24 50q0 23 -16.5 39.5t-58.5 16.5q-43 0 -64 -16.5t-21 -45.5q0 -13 3.5 -24t6.5 -18l-75 -21q-17 31 -17 73q0 32 17 60.5t54 46.5
t96 18q54 0 87.5 -17t49.5 -43.5t19 -54.5q31 -29 73.5 -43.5t81.5 -14.5q78 0 78 49q0 28 -21 38.5t-50 10.5q-18 0 -33 -2t-28 -4l-10 72q12 3 32 6t47 3q36 0 69 -11t54 -38t21 -74q0 -53 -41.5 -89t-119.5 -36q-54 0 -96 15.5t-71 38.5q-15 -27 -44.5 -46t-73.5 -35
q-53 -20 -78.5 -40.5t-25.5 -53.5q0 -29 20.5 -46.5t63.5 -17.5q62 0 93.5 32.5t35.5 85.5h78q4 -61 36 -89.5t77 -28.5q47 0 69 20t22 55q0 23 -7 42t-18 37l74 31q15 -22 24.5 -53.5t9.5 -63.5q0 -69 -44.5 -108t-126.5 -39z" />
    <glyph glyph-name="jhatelu" unicode="&#xc1d;" horiz-adv-x="1286" 
d="M35 236q0 78 33 137.5t91.5 93t136.5 33.5q79 0 137.5 -32.5t91.5 -91.5t33 -139q0 -37 -8 -71q39 -50 79 -74.5t87 -24.5q51 0 78 32.5t27 93.5q0 58 -23.5 101.5t-63 75t-89.5 53.5l37 77q62 -26 112 -70t80 -102t30 -129q0 -21 -2 -39q38 -47 77 -70t84 -23
q51 0 78 32.5t27 93.5q0 58 -23.5 101.5t-63 75t-89.5 53.5l37 77q62 -26 112 -70t80 -102t30 -129q0 -99 -50 -155t-145 -56q-55 0 -99.5 24t-79.5 64q-23 -42 -65.5 -65t-102.5 -23q-61 0 -108 28.5t-84 75.5q-33 -49 -89.5 -76.5t-131.5 -27.5q-79 0 -137.5 31t-91 86.5
t-32.5 130.5zM118 248q0 -81 45 -131t133 -50q89 0 134 49.5t45 125.5q0 51 -19.5 92.5t-59 66t-100.5 24.5t-100.5 -24.5t-58.5 -64.5t-19 -88zM837 -125l7 141h75l8 -141h-90zM265 425q-29 0 -55.5 11t-48.5 41.5t-38 86.5l83 27q15 -55 29 -73t36 -18q20 0 37.5 12.5
t49.5 52.5l31 40q34 44 62.5 70t60.5 38t76 12l6 -77q-35 -2 -58.5 -11t-43 -28.5t-45.5 -52.5l-23 -30q-42 -54 -78 -77.5t-81 -23.5z" />
    <glyph glyph-name="nyatelu" unicode="&#xc1e;" horiz-adv-x="979" 
d="M300 -12q-108 0 -157.5 39t-49.5 105q0 63 51 100t148 37q82 0 144.5 -29t103.5 -73q31 48 31 119q0 73 -29 104t-73 31t-69.5 -30t-33.5 -73h-78q-18 107 -104 107q-37 0 -54.5 -17.5t-17.5 -43.5q0 -16 4.5 -32.5t9.5 -26.5l-76 -22q-8 17 -14.5 38.5t-6.5 50.5
q0 39 20.5 67.5t55 44.5t76.5 16q51 0 85.5 -20.5t60.5 -65.5q30 51 69 68.5t80 17.5q62 0 107.5 -37.5t61.5 -105.5h97l-7 143h93l-7 -143h127v-72h-295q0 -60 -17.5 -105.5t-49.5 -80.5q23 -48 23 -99q0 -25 -4 -49.5t-14 -47.5l-73 15q7 17 10.5 38t3.5 48q0 24 -6 46
q-43 -29 -97 -45.5t-129 -16.5zM176 132q0 -33 30 -51t96 -18q57 0 106 13t83 39q-30 36 -81 57.5t-118 21.5q-57 0 -86.5 -16.5t-29.5 -45.5z" />
    <glyph glyph-name="ttatelu" unicode="&#xc1f;" horiz-adv-x="772" 
d="M555 -12q-52 0 -89.5 18.5t-68.5 66.5q-33 -52 -73.5 -68.5t-87.5 -16.5q-63 0 -107 31t-67 86t-23 127q0 78 22.5 132.5t58.5 86.5t78 43l-6 130h90l-6 -126q50 -8 78 -41t28 -84q0 -61 -37.5 -99.5t-117.5 -38.5q-31 0 -58.5 9.5t-49.5 23.5q-1 -13 -1 -26v-8
q0 -41 10.5 -79.5t37 -63t72.5 -24.5q58 0 87 32.5t33 85.5h78q5 -61 37 -89.5t74 -28.5q107 0 107 126q0 58 -23.5 101.5t-63 75t-89.5 53.5l37 77q62 -26 112 -70t80 -102t30 -129q0 -101 -49.5 -156t-132.5 -55zM244 429q-37 0 -67 -24t-45 -70q16 -12 38.5 -21t51.5 -9
q40 0 60.5 17t20.5 47q0 29 -16 44.5t-43 15.5z" />
    <glyph glyph-name="tthatelu" unicode="&#xc20;" horiz-adv-x="593" 
d="M35 236q0 78 33 137.5t91.5 93t136.5 33.5q79 0 137.5 -32.5t91.5 -91.5t33 -139q0 -74 -32 -130.5t-91 -87.5t-139 -31q-79 0 -137.5 31t-91 86.5t-32.5 130.5zM118 248q0 -81 45 -131t133 -50q89 0 134 49.5t45 125.5q0 51 -19.5 92.5t-59 66t-100.5 24.5t-100.5 -24.5
t-58.5 -64.5t-19 -88zM243 246q0 32 15 45t39 13q22 0 37.5 -13t15.5 -45t-15.5 -46t-37.5 -14q-24 0 -39 14t-15 46zM265 425q-29 0 -55.5 11t-48.5 41.5t-38 86.5l83 27q15 -55 29 -73t36 -18q20 0 37.5 12.5t49.5 52.5l31 40q34 44 62.5 70t60.5 38t76 12l6 -77
q-35 -2 -58.5 -11t-43 -28.5t-45.5 -52.5l-23 -30q-42 -54 -78 -77.5t-81 -23.5z" />
    <glyph glyph-name="ddatelu" unicode="&#xc21;" horiz-adv-x="740" 
d="M546 -12q-78 0 -123 23t-71 62q-31 -53 -70 -69t-84 -16q-73 0 -118 55t-45 151q0 97 42.5 165t121 104.5t184.5 36.5q80 0 142 -20.5t117 -55.5l-49 -66q-51 33 -100.5 50t-115.5 17q-124 0 -191.5 -59t-67.5 -169q0 -70 24.5 -100t67.5 -30q47 0 73.5 32.5t30.5 85.5
h78q2 -32 13 -58.5t35 -40.5q-5 12 -8 26t-3 29q0 56 38.5 90t101.5 34t102.5 -37t39.5 -93q0 -76 -47.5 -111.5t-117.5 -35.5zM499 124q0 -17 5 -32.5t13 -27.5q15 -1 33 -1q81 0 81 66q0 31 -18.5 45t-47.5 14q-27 0 -46.5 -14.5t-19.5 -49.5zM344 425q-29 0 -55.5 11
t-48.5 41.5t-38 86.5l83 27q15 -55 29 -73t36 -18q20 0 37.5 12.5t49.5 52.5l31 40q34 44 62.5 70t60.5 38t76 12l6 -77q-35 -2 -58.5 -11t-43 -28.5t-45.5 -52.5l-23 -30q-42 -54 -78 -77.5t-81 -23.5z" />
    <glyph glyph-name="ddhatelu" unicode="&#xc22;" horiz-adv-x="740" 
d="M546 -12q-78 0 -123 23t-71 62q-31 -53 -70 -69t-84 -16q-73 0 -118 55t-45 151q0 97 42.5 165t121 104.5t184.5 36.5q80 0 142 -20.5t117 -55.5l-49 -66q-51 33 -100.5 50t-115.5 17q-124 0 -191.5 -59t-67.5 -169q0 -70 24.5 -100t67.5 -30q47 0 73.5 32.5t30.5 85.5
h78q2 -32 13 -58.5t35 -40.5q-5 12 -8 26t-3 29q0 56 38.5 90t101.5 34t102.5 -37t39.5 -93q0 -76 -47.5 -111.5t-117.5 -35.5zM499 124q0 -17 5 -32.5t13 -27.5q15 -1 33 -1q81 0 81 66q0 31 -18.5 45t-47.5 14q-27 0 -46.5 -14.5t-19.5 -49.5zM308 -125l7 141h75l8 -141
h-90zM344 425q-29 0 -55.5 11t-48.5 41.5t-38 86.5l83 27q15 -55 29 -73t36 -18q20 0 37.5 12.5t49.5 52.5l31 40q34 44 62.5 70t60.5 38t76 12l6 -77q-35 -2 -58.5 -11t-43 -28.5t-45.5 -52.5l-23 -30q-42 -54 -78 -77.5t-81 -23.5z" />
    <glyph glyph-name="nnatelu" unicode="&#xc23;" horiz-adv-x="826" 
d="M587 -12q-73 0 -111 37.5t-38 98.5q0 57 36.5 97.5t113.5 40.5q40 0 69 -11.5t51 -29.5v5v13q0 80 -36 131t-98 51q-52 0 -80 -31t-35 -72h-77q-6 26 -23.5 50.5t-49 40.5t-82.5 16q-45 0 -73 -18t-28 -53q0 -16 6.5 -29t21.5 -23q14 -10 39 -15.5t66 -5.5h43v-75h-57
q-80 0 -106 -22q-21 -18 -21 -53q0 -28 19 -48t65 -20q35 0 63.5 16.5t57.5 56.5l67 -50q-41 -49 -85.5 -73.5t-108.5 -24.5q-83 0 -123 39t-40 95q0 40 20.5 72.5t66.5 48.5q-42 19 -60.5 50.5t-18.5 69.5q0 62 50 99.5t135 37.5q70 0 114.5 -23t78.5 -67q26 42 65 66
t93 24q68 0 115.5 -35t73 -94.5t25.5 -134.5q0 -118 -52 -183t-152 -65zM520 127q0 -31 17.5 -49t53.5 -18q34 0 62 16t43 60q-18 23 -43.5 39.5t-60.5 16.5q-33 0 -52.5 -18t-19.5 -47z" />
    <glyph glyph-name="tatelu" unicode="&#xc24;" horiz-adv-x="778" 
d="M394 -12q-121 0 -200.5 32.5t-118.5 89t-39 127.5q0 56 23.5 98.5t64.5 66t94 23.5q63 0 98.5 -34t35.5 -90q0 -61 -41.5 -97.5t-116.5 -36.5q-21 0 -39 3.5t-35 10.5q26 -57 97 -85.5t172 -28.5q90 0 146 19.5t86 50t40 63.5q-19 -16 -42.5 -24.5t-55.5 -8.5
q-58 0 -95 33t-37 90q0 56 35.5 87.5t94.5 31.5q4 0 10 -1q-30 9 -67 14t-65 6q-14 -3 -30 -3q-29 0 -55.5 11t-48.5 41.5t-38 86.5l83 27q15 -55 29 -73t36 -18q20 0 37.5 12.5t49.5 52.5l31 40q34 44 62.5 70t60.5 38t76 12l6 -77q-35 -2 -58.5 -11t-43 -28.5t-45.5 -52.5
l-23 -30q-20 -26 -37 -43q111 -27 161.5 -89.5t50.5 -148.5q0 -73 -36.5 -131.5t-113.5 -92t-199 -33.5zM510 293q0 -22 16 -39t50 -17q35 0 56.5 17t31.5 46q-11 23 -33.5 38.5t-54.5 15.5q-25 0 -45.5 -14.5t-20.5 -46.5zM213 354q-42 0 -71.5 -27t-32.5 -69
q16 -10 34 -15.5t39 -5.5q49 0 69.5 18t20.5 46q0 26 -15.5 39.5t-43.5 13.5z" />
    <glyph glyph-name="thatelu" unicode="&#xc25;" horiz-adv-x="706" 
d="M504 -12q-52 0 -87.5 19.5t-64.5 66.5q-31 -54 -70 -70t-84 -16q-73 0 -118 56t-45 156q0 89 39 156.5t111 105.5t172 38t170 -38.5t107 -106t37 -155.5q0 -103 -45 -157.5t-122 -54.5zM496 67q42 0 67 31t25 104q0 65 -24.5 115t-74 79t-125.5 29h-15q-112 0 -171.5 -61
t-59.5 -159q0 -75 24.5 -106.5t67.5 -31.5q45 0 69.5 28.5t34.5 73.5h78q9 -51 38 -76.5t66 -25.5zM300 268q0 32 15 45t39 13q22 0 37.5 -13t15.5 -45t-15.5 -46t-37.5 -14q-24 0 -39 14t-15 46zM308 -125l7 141h75l8 -141h-90zM323 425q-29 0 -55.5 11t-48.5 41.5
t-38 86.5l83 27q15 -55 29 -73t36 -18q20 0 37.5 12.5t49.5 52.5l31 40q34 44 62.5 70t60.5 38t76 12l6 -77q-35 -2 -58.5 -11t-43 -28.5t-45.5 -52.5l-23 -30q-42 -54 -78 -77.5t-81 -23.5z" />
    <glyph glyph-name="datelu" unicode="&#xc26;" horiz-adv-x="706" 
d="M504 -12q-52 0 -87.5 19.5t-64.5 66.5q-31 -54 -70 -70t-84 -16q-73 0 -118 56t-45 156q0 89 39 156.5t111 105.5t172 38t170 -38.5t107 -106t37 -155.5q0 -103 -45 -157.5t-122 -54.5zM496 67q42 0 67 31t25 104q0 65 -24.5 115t-74 79t-125.5 29h-15q-112 0 -171.5 -61
t-59.5 -159q0 -75 24.5 -106.5t67.5 -31.5q45 0 72.5 32.5t31.5 85.5h78q4 -61 35.5 -89.5t68.5 -28.5zM323 425q-29 0 -55.5 11t-48.5 41.5t-38 86.5l83 27q15 -55 29 -73t36 -18q20 0 37.5 12.5t49.5 52.5l31 40q34 44 62.5 70t60.5 38t76 12l6 -77q-35 -2 -58.5 -11
t-43 -28.5t-45.5 -52.5l-23 -30q-42 -54 -78 -77.5t-81 -23.5z" />
    <glyph glyph-name="dhatelu" unicode="&#xc27;" horiz-adv-x="706" 
d="M504 -12q-52 0 -87.5 19.5t-64.5 66.5q-31 -54 -70 -70t-84 -16q-73 0 -118 56t-45 156q0 89 39 156.5t111 105.5t172 38t170 -38.5t107 -106t37 -155.5q0 -103 -45 -157.5t-122 -54.5zM496 67q42 0 67 31t25 104q0 65 -24.5 115t-74 79t-125.5 29h-15q-112 0 -171.5 -61
t-59.5 -159q0 -75 24.5 -106.5t67.5 -31.5q45 0 72.5 32.5t31.5 85.5h78q4 -61 35.5 -89.5t68.5 -28.5zM308 -125l7 141h75l8 -141h-90zM323 425q-29 0 -55.5 11t-48.5 41.5t-38 86.5l83 27q15 -55 29 -73t36 -18q20 0 37.5 12.5t49.5 52.5l31 40q34 44 62.5 70t60.5 38
t76 12l6 -77q-35 -2 -58.5 -11t-43 -28.5t-45.5 -52.5l-23 -30q-42 -54 -78 -77.5t-81 -23.5z" />
    <glyph glyph-name="natelu" unicode="&#xc28;" horiz-adv-x="702" 
d="M472 -12q-47 0 -82 15.5t-66 48t-68 81.5q-32 43 -49.5 59.5t-42.5 16.5q-23 0 -38 -18.5t-15 -47.5q0 -35 12 -66t36 -63l-81 -27q-22 35 -35.5 72.5t-13.5 83.5q0 61 38 102t98 41q39 0 65.5 -13.5t49 -38t48.5 -59.5q30 -39 52.5 -63t45 -34.5t52.5 -10.5q52 0 79 33
t27 94q0 75 -40 126.5t-108.5 78t-153.5 26.5h-44v0h-2q-29 0 -55.5 11t-48.5 41.5t-38 86.5l83 27q15 -55 29 -73t36 -18q20 0 37.5 12.5t49.5 52.5l31 40q34 44 62.5 70t60.5 38t76 12l6 -77q-35 -2 -58.5 -11t-43 -28.5t-45.5 -52.5l-23 -30q-14 -18 -26 -32
q95 -14 161.5 -55.5t101.5 -104t35 -140.5q0 -93 -49 -149.5t-146 -56.5z" />
    <glyph glyph-name="patelu" unicode="&#xc2a;" horiz-adv-x="711" 
d="M485 -12q-54 0 -92 22t-72 61q-27 -37 -59.5 -60t-86.5 -23q-53 0 -85 22t-46.5 56.5t-14.5 71.5q0 65 41 104.5t100 39.5q36 0 64 -12.5t55 -39t59 -69.5q27 -35 48 -56t43 -29.5t51 -8.5q50 0 76.5 32.5t26.5 93.5q0 58 -23 101.5t-63 75t-90 53.5l38 77
q62 -26 112 -70t79.5 -102.5t29.5 -129.5q0 -99 -50 -154.5t-141 -55.5zM107 136q0 -31 19.5 -52t53.5 -21q32 0 54 18t38 52q-29 39 -49.5 56.5t-50.5 17.5q-28 0 -46.5 -18t-18.5 -53zM197 425q-29 0 -55.5 11t-48.5 41.5t-38 86.5l83 27q15 -55 29 -73t36 -18
q20 0 37.5 12.5t49.5 52.5l31 40q34 44 62.5 70t60.5 38t76 12l6 -77q-35 -2 -58.5 -11t-43 -28.5t-45.5 -52.5l-23 -30q-42 -54 -78 -77.5t-81 -23.5z" />
    <glyph glyph-name="phatelu" unicode="&#xc2b;" horiz-adv-x="711" 
d="M485 -12q-54 0 -92 22t-72 61q-27 -37 -59.5 -60t-86.5 -23q-53 0 -85 22t-46.5 56.5t-14.5 71.5q0 65 41 104.5t100 39.5q36 0 64 -12.5t55 -39t59 -69.5q27 -35 48 -56t43 -29.5t51 -8.5q50 0 76.5 32.5t26.5 93.5q0 58 -23 101.5t-63 75t-90 53.5l38 77
q62 -26 112 -70t79.5 -102.5t29.5 -129.5q0 -99 -50 -154.5t-141 -55.5zM107 136q0 -31 19.5 -52t53.5 -21q32 0 54 18t38 52q-29 39 -49.5 56.5t-50.5 17.5q-28 0 -46.5 -18t-18.5 -53zM280 -125l7 141h75l8 -141h-90zM197 425q-29 0 -55.5 11t-48.5 41.5t-38 86.5l83 27
q15 -55 29 -73t36 -18q20 0 37.5 12.5t49.5 52.5l31 40q34 44 62.5 70t60.5 38t76 12l6 -77q-35 -2 -58.5 -11t-43 -28.5t-45.5 -52.5l-23 -30q-42 -54 -78 -77.5t-81 -23.5z" />
    <glyph glyph-name="batelu" unicode="&#xc2c;" horiz-adv-x="750" 
d="M533 -12q-52 0 -89.5 18.5t-68.5 67.5q-37 -52 -76.5 -69t-93.5 -17q-55 0 -91.5 19.5t-54.5 52t-18 70.5q0 61 37.5 97t110.5 62q41 15 65 32t24 50q0 23 -16.5 39.5t-58.5 16.5q-43 0 -64 -16.5t-21 -45.5q0 -13 3.5 -24t6.5 -18l-75 -21q-17 31 -17 73q0 32 17 60.5
t54 46.5t96 18q60 0 94 -20t48.5 -50t14.5 -60q0 -57 -33.5 -89t-99.5 -56q-53 -20 -78.5 -40.5t-25.5 -53.5q0 -29 20.5 -46.5t63.5 -17.5q62 0 93.5 32.5t35.5 85.5h78q5 -61 37 -89.5t74 -28.5q107 0 107 126q0 58 -23.5 101.5t-63 75t-89.5 53.5l37 77q62 -26 112 -70
t80 -102t30 -129q0 -101 -49.5 -156t-132.5 -55z" />
    <glyph glyph-name="bhatelu" unicode="&#xc2d;" horiz-adv-x="750" 
d="M533 -12q-52 0 -89 19t-69 67q-37 -52 -76.5 -69t-93.5 -17q-55 0 -91.5 19.5t-54.5 52t-18 70.5q0 61 37.5 97t110.5 62q41 15 65 32t24 50q0 23 -16.5 39.5t-58.5 16.5q-43 0 -64 -16.5t-21 -45.5q0 -13 3.5 -24t6.5 -18l-75 -21q-17 31 -17 73q0 32 17 60.5t54 46.5
t96 18q60 0 94 -20t48.5 -50t14.5 -60q0 -57 -33.5 -89t-99.5 -56q-53 -20 -78.5 -40.5t-25.5 -53.5q0 -29 20.5 -46.5t63.5 -17.5q62 0 93.5 32.5t35.5 85.5h78q5 -61 37 -89.5t74 -28.5q107 0 107 125q0 58 -23 102.5t-60.5 76.5t-81.5 54h-2q-29 0 -55.5 11t-48.5 41.5
t-38 86.5l83 27q15 -55 29 -73t36 -18q20 0 37.5 12.5t49.5 52.5l31 40q34 44 62.5 70t60.5 38t76 12l6 -77q-35 -2 -58.5 -11t-43 -28.5t-45.5 -52.5l-23 -30q-34 -43 -62 -66q67 -43 110 -110t43 -152q0 -100 -49.5 -155t-132.5 -55zM329 -125l7 141h75l8 -141h-90z" />
    <glyph glyph-name="matelu" unicode="&#xc2e;" horiz-adv-x="1058" 
d="M239 425q-29 0 -55.5 11t-48.5 41.5t-38 86.5l83 27q15 -55 29 -73t36 -18q20 0 37.5 12.5t49.5 52.5l31 40q34 44 62.5 70t60.5 38t76 12l6 -77q-35 -2 -58.5 -11t-43 -28.5t-45.5 -52.5l-23 -30q-42 -54 -78 -77.5t-81 -23.5zM481 -12q-52 0 -89 22t-71 61
q-28 -37 -60 -60t-86 -23q-53 0 -85 22t-46.5 56.5t-14.5 71.5q0 65 41 104.5t100 39.5q36 0 64 -12.5t55 -39t59 -69.5q27 -35 48 -56t42 -29.5t48 -8.5q53 0 80 32t27 93q0 76 -40 127.5t-108 78.5t-153 27h-49l83 75q111 -7 189.5 -47.5t119.5 -107t41 -151.5
q0 -59 -21 -106t-64.5 -73.5t-109.5 -26.5zM107 136q0 -31 19.5 -52t53.5 -21q32 0 54 18t38 52q-29 39 -49.5 56.5t-50.5 17.5q-28 0 -46.5 -18t-18.5 -53zM828 -12q-67 0 -117.5 34t-89.5 89l40 65q42 -55 83.5 -82t90.5 -27q51 0 78 32.5t27 93.5q0 58 -23.5 101.5
t-63 75t-89.5 53.5l37 77q62 -26 112 -70t80 -102t30 -129q0 -99 -50 -155t-145 -56z" />
    <glyph glyph-name="yatelu" unicode="&#xc2f;" horiz-adv-x="1286" 
d="M35 236q0 78 33 137.5t91.5 93t136.5 33.5q79 0 137.5 -32.5t91.5 -91.5t33 -139q0 -37 -8 -71q39 -50 79 -74.5t87 -24.5q51 0 78 32.5t27 93.5q0 58 -23.5 102t-63.5 76t-90 54h-9q-29 0 -55.5 11t-48.5 41.5t-38 86.5l83 27q15 -55 29 -73t36 -18q20 0 37.5 12.5
t49.5 52.5l31 40q34 44 62.5 70t60.5 38t76 12l6 -77q-35 -2 -58.5 -11t-43 -28.5t-45.5 -52.5l-23 -30q-32 -41 -58 -63q72 -44 120 -111.5t48 -152.5q0 -21 -2 -39q38 -47 77 -70t84 -23q51 0 78 32.5t27 93.5q0 58 -23.5 101.5t-63 75t-89.5 53.5l37 77q62 -26 112 -70
t80 -102t30 -129q0 -99 -50 -155t-145 -56q-55 0 -99.5 24t-79.5 64q-23 -42 -65.5 -65t-102.5 -23q-61 0 -108 28.5t-84 75.5q-33 -49 -89.5 -76.5t-131.5 -27.5q-79 0 -137.5 31t-91 86.5t-32.5 130.5zM118 245q0 -78 45 -128t133 -50q89 0 134 48.5t45 124.5
q0 50 -19.5 91t-59 65.5t-100.5 24.5t-100.5 -24.5t-58.5 -64.5t-19 -87z" />
    <glyph glyph-name="ratelu" unicode="&#xc30;" horiz-adv-x="593" 
d="M35 236q0 78 33 137.5t91.5 93t136.5 33.5q79 0 137.5 -32.5t91.5 -91.5t33 -139q0 -74 -32 -130.5t-91 -87.5t-139 -31q-79 0 -137.5 31t-91 86.5t-32.5 130.5zM118 248q0 -81 45 -131t133 -50q89 0 134 49.5t45 125.5q0 51 -19.5 92.5t-59 66t-100.5 24.5t-100.5 -24.5
t-58.5 -64.5t-19 -88zM265 425q-29 0 -55.5 11t-48.5 41.5t-38 86.5l83 27q15 -55 29 -73t36 -18q20 0 37.5 12.5t49.5 52.5l31 40q34 44 62.5 70t60.5 38t76 12l6 -77q-35 -2 -58.5 -11t-43 -28.5t-45.5 -52.5l-23 -30q-42 -54 -78 -77.5t-81 -23.5z" />
    <glyph glyph-name="rratelu" unicode="&#xc31;" horiz-adv-x="822" 
d="M570 -12q-57 0 -93 19.5t-65 65.5q-32 -53 -71 -69t-87 -16q-74 0 -122 34.5t-71.5 94t-23.5 133.5q0 82 25.5 137.5t68.5 84t95 28.5q60 0 96 -34t36 -93q0 -57 -30 -92h184q-26 18 -39 41.5t-13 58.5q0 29 14.5 56t45.5 45t81 18q56 0 97 -31t64 -86t23 -128
q0 -84 -27.5 -144t-76 -91.5t-111.5 -31.5zM221 429q-36 0 -62.5 -26t-36.5 -75q14 -10 32.5 -16.5t43.5 -6.5q40 0 60.5 17t20.5 47q0 29 -16 44.5t-42 15.5zM451 169q11 -49 40 -75.5t78 -26.5q63 0 98.5 50.5t35.5 135.5q0 48 -11 87t-33.5 62t-58.5 23q-22 0 -41.5 -14
t-19.5 -46q0 -36 25 -57t68 -29v-72h-341v46q-36 -18 -88 -18q-25 0 -47.5 6.5t-40.5 16.5v-9q0 -43 12.5 -85t42 -69.5t81.5 -27.5q59 0 86 28.5t37 73.5h77z" />
    <glyph glyph-name="latelu" unicode="&#xc32;" horiz-adv-x="709" 
d="M356 -12q-105 0 -176.5 36t-108 99.5t-36.5 145.5q0 74 25.5 125.5t68.5 78.5t96 27q59 0 95.5 -34t36.5 -93q0 -61 -38 -99.5t-118 -38.5q-25 0 -47 6.5t-40 16.5q2 -52 28.5 -95t78.5 -69.5t132 -26.5q110 0 174 46t64 132q0 58 -32.5 104t-101.5 74l40 77
q83 -36 130 -100t47 -150q0 -74 -33 -133.5t-103.5 -94t-181.5 -34.5zM220 429q-39 0 -66 -26.5t-36 -73.5q14 -10 33.5 -17t44.5 -7q41 0 61.5 17t20.5 47q0 29 -16 44.5t-42 15.5z" />
    <glyph glyph-name="llatelu" unicode="&#xc33;" horiz-adv-x="645" 
d="M329 -12q-34 0 -68.5 9t-58 31.5t-23.5 63.5q0 21 9.5 39.5t31.5 33.5q-87 13 -139 51t-52 105q0 31 17.5 58.5t52 45t84.5 17.5q54 0 87 -18t47.5 -45.5t14.5 -55.5q0 -32 -17.5 -56t-47.5 -42q19 -2 41 -3q29 -2 50 -7q92 7 132.5 36t40.5 72q0 39 -37 67.5t-110 35.5
q-9 -1 -18 -1q-29 0 -55.5 11t-48.5 41.5t-38 86.5l83 27q15 -55 29 -73t36 -18q20 0 37.5 12.5t49.5 52.5l31 40q34 44 62.5 70t60.5 38t76 12l6 -77q-35 -2 -58.5 -11t-43 -28.5t-45.5 -52.5l-23 -30q-23 -29 -43 -49q64 -22 98 -60t34 -93q0 -58 -38 -101.5t-128 -61.5
q15 -12 25 -29.5t10 -37.5q0 -40 -22.5 -63.5t-57.5 -33t-74 -9.5zM109 315q0 -18 10.5 -37.5t53.5 -33.5q36 10 58 28.5t22 43.5q0 22 -16 38.5t-56 16.5q-35 0 -53.5 -16.5t-18.5 -39.5zM257 97q0 -23 22.5 -32.5t52.5 -9.5t51.5 9.5t21.5 32.5q0 19 -18 34t-57 21
q-44 -8 -58.5 -23t-14.5 -32z" />
    <glyph glyph-name="lllatelu" unicode="&#xc34;" horiz-adv-x="812" 
d="M572 -12q-51 0 -92 16.5t-74 69.5q-33 -53 -73.5 -69.5t-89.5 -16.5q-69 0 -114 31.5t-67.5 87t-22.5 125.5q0 93 30.5 152t78 87.5t97.5 28.5q65 0 101 -34t36 -93q0 -61 -37.5 -99.5t-117.5 -38.5q-31 0 -58.5 9.5t-49.5 23.5q-1 -13 -1 -26v-8q0 -41 10 -79.5
t37.5 -63t77.5 -24.5q62 0 90 31.5t34 86.5h78q5 -52 33.5 -85t90.5 -33q52 0 78.5 24.5t36.5 63t10 79.5v8q0 13 -1 26q-22 -14 -49.5 -23.5t-58.5 -9.5q-80 0 -117.5 38.5t-37.5 99.5q0 59 36.5 93t100.5 34q51 0 98 -28.5t77.5 -87.5t30.5 -152q0 -70 -22 -125t-66.5 -87
t-112.5 -32zM509 369q0 -30 20.5 -47t60.5 -17q29 0 51.5 9t38.5 21q-15 46 -45 70t-67 24q-27 0 -43 -15.5t-16 -44.5zM244 429q-37 0 -67 -24t-45 -70q16 -12 38.5 -21t51.5 -9q40 0 60.5 17t20.5 47q0 29 -16 44.5t-43 15.5z" />
    <glyph glyph-name="vatelu" unicode="&#xc35;" horiz-adv-x="711" 
d="M481 -12q-52 0 -89 22t-71 61q-28 -37 -60 -60t-86 -23q-53 0 -85 22t-46.5 56.5t-14.5 71.5q0 65 41 104.5t100 39.5q36 0 64 -12.5t55 -39t59 -69.5q27 -35 48 -56t42 -29.5t48 -8.5q53 0 80 32t27 93q0 76 -40 127.5t-108 78.5t-153 27h-49l83 75q111 -7 189.5 -47.5
t119.5 -107t41 -151.5q0 -59 -21 -106t-64.5 -73.5t-109.5 -26.5zM107 136q0 -31 19.5 -52t53.5 -21q32 0 54 18t38 52q-29 39 -49.5 56.5t-50.5 17.5q-28 0 -46.5 -18t-18.5 -53zM239 425q-29 0 -55.5 11t-48.5 41.5t-38 86.5l83 27q15 -55 29 -73t36 -18q20 0 37.5 12.5
t49.5 52.5l31 40q34 44 62.5 70t60.5 38t76 12l6 -77q-35 -2 -58.5 -11t-43 -28.5t-45.5 -52.5l-23 -30q-42 -54 -78 -77.5t-81 -23.5z" />
    <glyph glyph-name="shatelu" unicode="&#xc36;" horiz-adv-x="550" 
d="M361 -12q-55 0 -88.5 19t-49 49t-15.5 63q0 51 32.5 86.5t75.5 65.5q-43 14 -92 14q-64 0 -88.5 -21.5t-24.5 -56.5q0 -20 5.5 -37t10.5 -29l-76 -22q-9 20 -15.5 46t-6.5 48q0 37 17.5 70t58.5 54t112 21q43 0 83 -8.5t78 -28.5q29 27 29 54q0 28 -19 40t-60 19
q-24 -9 -53 -9t-55.5 11t-48.5 41.5t-38 86.5l83 27q15 -55 29 -73t36 -18q20 0 37.5 12.5t49.5 52.5l31 40q34 44 62.5 70t60.5 38t76 12l6 -77q-35 -2 -58.5 -11t-43 -28.5t-45.5 -52.5l-23 -30q-17 -21 -31 -37q45 -14 64.5 -41.5t19.5 -57.5q0 -34 -13.5 -59.5
t-35.5 -46.5q82 -61 82 -159q0 -64 -42.5 -100.5t-116.5 -36.5zM289 122q0 -22 15.5 -40.5t57.5 -18.5q76 0 76 67q0 33 -15 60.5t-42 47.5q-49 -37 -70.5 -61t-21.5 -55z" />
    <glyph glyph-name="ssatelu" unicode="&#xc37;" horiz-adv-x="713" 
d="M485 -12q-54 0 -92 22t-72 61q-27 -37 -59.5 -60t-86.5 -23q-53 0 -85 22t-46.5 56.5t-14.5 71.5q0 65 41 104.5t100 39.5q36 0 64 -12.5t55 -39t59 -69.5q27 -35 48 -56t43 -29.5t51 -8.5q50 0 76.5 32.5t26.5 92.5q0 58 -23 101.5t-63 75.5t-90 54l38 77
q62 -26 112 -70t79.5 -102.5t29.5 -129.5q0 -115 -67 -170q-2 -10 -2 -20q0 -25 13 -40t35 -15q19 0 33.5 6.5t33.5 22.5l47 -62q-28 -23 -53.5 -34t-63.5 -11q-63 0 -95 34.5t-35 81.5q-17 -3 -37 -3zM107 136q0 -31 19.5 -52t53.5 -21q32 0 54 18t38 52q-29 39 -49.5 56.5
t-50.5 17.5q-28 0 -46.5 -18t-18.5 -53zM197 425q-29 0 -55.5 11t-48.5 41.5t-38 86.5l83 27q15 -55 29 -73t36 -18q20 0 37.5 12.5t49.5 52.5l31 40q34 44 62.5 70t60.5 38t76 12l6 -77q-35 -2 -58.5 -11t-43 -28.5t-45.5 -52.5l-23 -30q-42 -54 -78 -77.5t-81 -23.5z" />
    <glyph glyph-name="satelu" unicode="&#xc38;" horiz-adv-x="702" 
d="M472 -12q-47 0 -82 15.5t-66 48t-68 81.5q-32 43 -49.5 59.5t-42.5 16.5q-23 0 -38 -18.5t-15 -47.5q0 -35 12 -66t36 -63l-81 -27q-22 35 -35.5 72.5t-13.5 83.5q0 61 38 102t98 41q39 0 65.5 -13.5t49 -38t48.5 -59.5q30 -39 52 -62.5t45 -34.5t55 -11q50 0 77 32.5
t27 93.5q0 58 -23 101.5t-63 75t-90 53.5l38 77q62 -26 112 -70t79.5 -102.5t29.5 -129.5q0 -98 -50 -154t-145 -56zM197 425q-29 0 -55.5 11t-48.5 41.5t-38 86.5l83 27q15 -55 29 -73t36 -18q20 0 37.5 12.5t49.5 52.5l31 40q34 44 62.5 70t60.5 38t76 12l6 -77
q-35 -2 -58.5 -11t-43 -28.5t-45.5 -52.5l-23 -30q-42 -54 -78 -77.5t-81 -23.5z" />
    <glyph glyph-name="hatelu" unicode="&#xc39;" horiz-adv-x="1033" 
d="M485 -12q-54 0 -92 22t-72 61q-27 -37 -59.5 -60t-86.5 -23q-53 0 -85 22t-46.5 56.5t-14.5 71.5q0 65 41 104.5t100 39.5q36 0 64 -12.5t55 -39t59 -69.5q27 -35 48 -56t43 -29.5t51 -8.5q50 0 76.5 32t26.5 90q0 55 -23.5 99t-63.5 78.5t-88 58.5l36 75h352
q65 0 101.5 -8t63.5 -30q21 -16 34 -43.5t13 -65.5q0 -63 -38 -98t-103 -35q-50 0 -80 19t-43.5 48t-13.5 57q0 25 6 44.5t16 36.5h-208q53 -40 87.5 -99.5t34.5 -132.5q0 -95 -49.5 -150t-141.5 -55zM813 353q0 -30 17.5 -48.5t50.5 -18.5q35 0 49.5 18.5t14.5 45.5
q0 42 -25.5 58.5t-71.5 16.5h-9q-26 -34 -26 -72zM107 136q0 -31 19.5 -52t53.5 -21q32 0 54 18t38 52q-29 39 -49.5 56.5t-50.5 17.5q-28 0 -46.5 -18t-18.5 -53zM197 425q-29 0 -55.5 11t-48.5 41.5t-38 86.5l83 27q15 -55 29 -73t36 -18q20 0 37.5 12.5t49.5 52.5l31 40
q34 44 62.5 70t60.5 38t76 12l6 -77q-35 -2 -58.5 -11t-43 -28.5t-45.5 -52.5l-23 -30q-42 -54 -78 -77.5t-81 -23.5z" />
    <glyph glyph-name="avagrahatelu" unicode="&#xc3d;" horiz-adv-x="590" 
d="M203 500q60 0 94 -20t48.5 -50t14.5 -60q0 -57 -33.5 -88.5t-99.5 -56.5q-59 -22 -81.5 -40.5t-22.5 -47.5q0 -18 6 -28.5t16 -17.5q11 -7 28 -9.5t54 -2.5h348v-79h-344q-75 0 -111 13t-55 38q-24 32 -24 79q0 61 35.5 95.5t112.5 63.5q41 16 65 32.5t24 49.5
q0 23 -16.5 39.5t-58.5 16.5q-43 0 -64 -16.5t-21 -45.5q0 -13 3.5 -24t6.5 -18l-75 -21q-17 31 -17 73q0 32 17 60.5t54 46.5t96 18z" />
    <glyph glyph-name="aavowelsigntelu" unicode="&#xc3e;" horiz-adv-x="260" 
d="M104 220q-50 0 -80 19t-43.5 48t-13.5 57q0 25 6 44.5t16 36.5h-535v75h579q65 0 101.5 -8t63.5 -30q21 -16 34 -43.5t13 -65.5q0 -63 -38 -98t-103 -35zM40 353q0 -30 17.5 -48.5t50.5 -18.5q35 0 49.5 18.5t14.5 45.5q0 42 -25.5 58.5t-71.5 16.5h-9q-26 -34 -26 -72z
" />
    <glyph glyph-name="ivowelsigntelu" unicode="&#xc3f;" 
d="M-278 432q-36 0 -67.5 8t-61.5 18l27 64q20 -8 44 -14.5t54 -6.5q29 0 52.5 7.5t37.5 27.5t14 59v0q-18 -17 -44.5 -28.5t-63.5 -11.5q-34 0 -63.5 10.5t-48 33.5t-18.5 60q0 51 36.5 82.5t99.5 31.5q54 0 92.5 -24t59 -64.5t20.5 -89.5q0 -88 -47.5 -125.5t-122.5 -37.5
zM-345 662q0 -19 9.5 -28.5t22.5 -12.5t24 -3q33 0 54.5 11.5t39.5 31.5q-14 21 -36 34t-49 13q-31 0 -48 -12.5t-17 -33.5z" />
    <glyph glyph-name="iivowelsigntelu" unicode="&#xc40;" 
d="M-278 432q-36 0 -68 7.5t-61 18.5l27 64q20 -8 44 -14.5t54 -6.5q43 0 73 17t30 69v1q-18 -15 -44.5 -26.5t-65.5 -11.5q-60 0 -93.5 22.5t-33.5 70.5q0 44 35 73q-7 20 -7 41q0 53 39 82.5t102 29.5q61 0 95.5 -24t52.5 -68l-76 -20q-17 47 -72 47q-31 0 -50.5 -13.5
t-19.5 -40.5v-6q19 3 39 3q86 0 128 -46.5t42 -117.5q0 -72 -43.5 -111.5t-126.5 -39.5zM-345 648q0 -22 18 -31t42 -9q28 0 48.5 11.5t38.5 29.5q-14 17 -36 27t-50 10q-25 0 -43 -9t-18 -29z" />
    <glyph glyph-name="uvowelsigntelu" unicode="&#xc41;" horiz-adv-x="346" 
d="M116 -12q-67 0 -117.5 34t-89.5 89l40 65q42 -55 83.5 -82t90.5 -27q51 0 78 32.5t27 93.5q0 58 -23.5 101.5t-63 75t-89.5 53.5l37 77q62 -26 112 -70t80 -102t30 -129q0 -99 -50 -155t-145 -56z" />
    <glyph glyph-name="uuvowelsigntelu" unicode="&#xc42;" horiz-adv-x="668" 
d="M116 -12q-67 0 -117.5 34t-89.5 89l40 65q42 -55 82.5 -82t89.5 -27q53 0 80 32t27 90q0 55 -23.5 99t-63.5 78.5t-88 58.5l36 75h352q65 0 101.5 -8t63.5 -30q21 -16 34 -43.5t13 -65.5q0 -63 -38 -98t-103 -35q-50 0 -80 19t-43.5 48t-13.5 57q0 25 6 44.5t16 36.5
h-208q53 -40 87.5 -99t34.5 -132q0 -95 -50 -150.5t-145 -55.5zM448 353q0 -30 17.5 -48.5t50.5 -18.5q35 0 49.5 18.5t14.5 45.5q0 42 -25.5 58.5t-71.5 16.5h-9q-26 -34 -26 -72z" />
    <glyph glyph-name="rvocalicvowelsigntelu" unicode="&#xc43;" horiz-adv-x="400" 
d="M97 -386q-71 0 -122 26t-78 71.5t-27 102.5q0 53 21.5 91t58.5 59t82 21q67 0 98 -35.5t31 -80.5q0 -58 -36 -91.5t-112 -33.5q-30 0 -61 13q32 -72 150 -72q38 0 76 9.5t70 34.5t51.5 70.5t19.5 117.5q0 77 -27 151.5t-74.5 141.5t-109 123.5t-131.5 96.5l41 70
q66 -38 133 -97t123 -135t90 -165t34 -187q0 -106 -40 -172.5t-108 -98t-153 -31.5zM31 -79q-39 0 -63 -26.5t-27 -69.5q29 -17 67 -17q80 0 80 57q0 26 -15.5 41t-41.5 15z" />
    <glyph glyph-name="rrvocalicvowelsigntelu" unicode="&#xc44;" horiz-adv-x="656" 
d="M95 -386q-71 0 -121.5 26t-77 71.5t-26.5 102.5q0 53 21.5 91t58.5 59t82 21q67 0 98 -35.5t31 -80.5q0 -58 -36 -91.5t-112 -33.5q-30 0 -61 12q15 -34 52 -52.5t96 -18.5q38 0 76.5 9.5t71 34.5t52 70.5t19.5 117.5q0 78 -26.5 150.5t-72 138t-104 119.5t-121.5 94
l29 81h406q65 0 101.5 -8t63.5 -30q21 -16 34 -43.5t13 -65.5q0 -63 -38 -98t-103 -35q-50 0 -80 19t-43.5 48t-13.5 57q0 24 6 44t16 37h-193q-38 0 -89 2q57 -39 109.5 -93t94.5 -120t66 -141.5t24 -156.5q0 -106 -40.5 -172.5t-109 -98t-153.5 -31.5zM437 353
q0 -30 17.5 -48.5t50.5 -18.5q35 0 49.5 18.5t14.5 45.5q0 43 -25.5 59t-71.5 16h-9q-26 -35 -26 -72zM31 -79q-39 0 -63 -26.5t-27 -69.5q29 -17 67 -17q80 0 80 57q0 26 -15.5 41t-41.5 15z" />
    <glyph glyph-name="evowelsigntelu" unicode="&#xc46;" 
d="M-32 553q0 -33 -11.5 -56.5t-27.5 -36.5q-23 -19 -55.5 -27t-89.5 -8h-55v75h67q32 0 48.5 3.5t26.5 11.5q15 14 15 37q0 27 -16 40q-10 8 -25 12t-50 4h-344v75h338q55 0 86.5 -8t54.5 -28q17 -15 27.5 -37.5t10.5 -56.5z" />
    <glyph glyph-name="eevowelsigntelu" unicode="&#xc47;" 
d="M-32 553q0 -33 -11.5 -56.5t-27.5 -36.5q-23 -19 -55.5 -27t-89.5 -8h-55v75h67q32 0 48.5 3.5t26.5 11.5q15 14 15 37q0 27 -16 40q-10 8 -25 12t-50 4h-344v75h275q-5 17 -5 36q0 53 40 83t101 30t95.5 -25.5t51.5 -70.5l-76 -20q-8 23 -24.5 36.5t-45.5 13.5
q-27 0 -47 -14t-20 -41q0 -15 8 -28q47 -1 75.5 -9.5t50.5 -26.5q17 -15 27.5 -37.5t10.5 -56.5z" />
    <glyph glyph-name="aivowelsigntelu" unicode="&#xc48;" 
d="M-32 553q0 -33 -11.5 -56.5t-27.5 -36.5q-23 -19 -55.5 -27t-89.5 -8h-55v75h67q32 0 48.5 3.5t26.5 11.5q15 14 15 37q0 27 -16 40q-10 8 -25 12t-50 4h-344v75h338q55 0 86.5 -8t54.5 -28q17 -15 27.5 -37.5t10.5 -56.5zM-440 -61q46 0 74.5 -17t41.5 -43t13 -52
q0 -21 -5.5 -38t-14.5 -32h329v-75h-357q-64 0 -103.5 8t-65.5 28q-21 16 -33.5 40t-12.5 61q0 54 37 87t97 33zM-408 -243h5q23 28 23 59q0 26 -16.5 41.5t-47.5 15.5t-46 -15.5t-15 -37.5q0 -35 25.5 -49t71.5 -14z" />
    <glyph glyph-name="ovowelsigntelu" unicode="&#xc4a;" horiz-adv-x="300" 
d="M144 420q-50 0 -80 19t-43.5 47.5t-13.5 57.5q0 25 6 44.5t16 36.5h-39q-49 0 -72 -26t-29 -67h-78q-7 46 -34 69.5t-59 23.5h-16q-38 0 -57 -17.5t-19 -43.5q0 -29 18 -46.5t64 -17.5h29v-75h-31q-73 0 -117.5 37t-44.5 105q0 59 42.5 96t112.5 37h8q46 0 81.5 -15.5
t60.5 -61.5q21 38 55 57.5t95 19.5h65q71 0 109 -8t65 -30q21 -16 34 -43.5t13 -65.5q0 -63 -38 -98t-103 -35zM80 553q0 -30 17.5 -48.5t50.5 -18.5q35 0 49.5 18.5t14.5 45.5q0 42 -25.5 58.5t-71.5 16.5h-9q-26 -34 -26 -72z" />
    <glyph glyph-name="oovowelsigntelu" unicode="&#xc4b;" horiz-adv-x="300" 
d="M144 420q-50 0 -80 19t-43.5 47.5t-13.5 57.5q0 25 6 44.5t16 36.5h-39q-49 0 -72 -26t-29 -67h-78q-7 46 -34 69.5t-59 23.5h-16q-38 0 -57 -17.5t-19 -43.5q0 -29 18 -46.5t64 -17.5h29v-75h-31q-73 0 -117.5 37t-44.5 105q0 59 42.5 96t112.5 37h8q46 0 81.5 -15.5
t60.5 -61.5q21 38 55 57.5t95 19.5h36q-5 17 -5 37q0 53 40 83t101 30t95.5 -25.5t51.5 -70.5l-76 -20q-8 23 -24.5 36.5t-45.5 13.5q-27 0 -47 -14t-20 -41q0 -7 2 -14.5t7 -15.5q46 -2 74 -10.5t50 -26.5q21 -16 34 -43.5t13 -65.5q0 -63 -38 -98t-103 -35zM80 553
q0 -30 17.5 -48.5t50.5 -18.5q35 0 49.5 18.5t14.5 45.5q0 42 -25.5 58.5t-71.5 16.5h-9q-26 -34 -26 -72z" />
    <glyph glyph-name="auvowelsigntelu" unicode="&#xc4c;" horiz-adv-x="290" 
d="M134 403q-50 0 -80 19t-43.5 47.5t-13.5 57.5q0 25 6 44.5t16 36.5h-129q13 -22 13 -55t-11.5 -56.5t-27.5 -36.5q-23 -19 -56 -27t-89 -8h-94v75h106q32 0 48.5 3.5t26.5 11.5q15 14 15 37q0 27 -16 40q-10 8 -25 12t-50 4h-211v75h540q68 0 105 -8t64 -30
q21 -16 34 -43.5t13 -65.5q0 -63 -38 -98t-103 -35zM70 536q0 -30 17.5 -48.5t50.5 -18.5q35 0 49.5 18.5t14.5 45.5q0 42 -25.5 58.5t-71.5 16.5h-9q-26 -34 -26 -72z" />
    <glyph glyph-name="viramatelu" unicode="&#xc4d;" 
d="M-355 540q0 52 48 87q-56 37 -56 97q0 27 10 47t28 34q21 17 54.5 25t102.5 8h287v-75h-303q-34 0 -49 -2t-24 -7q-23 -11 -23 -37q0 -28 21 -39q10 -5 26.5 -7.5t47.5 -2.5h137v-75h-141q-28 0 -43.5 -3.5t-23.5 -9.5q-16 -12 -16 -34q0 -24 16 -35q9 -7 23 -9t36 -2h37
v-75h-38q-71 0 -114 27.5t-43 87.5z" />
    <glyph glyph-name="lengthmarktelu" unicode="&#xc55;" 
d="M-159 682q61 0 95.5 -25.5t51.5 -70.5l-76 -20q-8 23 -24.5 36.5t-45.5 13.5q-27 0 -47 -14t-20 -41q0 -14 9.5 -31.5t39.5 -37.5l-74 -28q-27 25 -38.5 50t-11.5 55q0 53 40 83t101 30z" />
    <glyph glyph-name="ailengthmarktelu" unicode="&#xc56;" 
d="M-440 -61q46 0 74.5 -17t41.5 -43t13 -52q0 -21 -5.5 -38t-14.5 -32h329v-75h-357q-64 0 -103.5 8t-65.5 28q-21 16 -33.5 40t-12.5 61q0 54 37 87t97 33zM-408 -243h5q23 28 23 59q0 26 -16.5 41.5t-47.5 15.5t-46 -15.5t-15 -37.5q0 -35 25.5 -49t71.5 -14z" />
    <glyph glyph-name="tsatelu" unicode="&#xc58;" horiz-adv-x="760" 
d="M496 869q59 0 95 -34t36 -86q0 -37 -13 -61t-33 -40q-30 -22 -67.5 -29t-101.5 -7h-333v75h304q-9 15 -14 32t-5 38q0 27 13 52.5t42 42.5t77 17zM433 746q0 -31 22 -59h5q47 0 72.5 14.5t25.5 48.5q0 22 -15 37.5t-46 15.5t-47.5 -15.5t-16.5 -41.5zM543 -12
q-58 0 -92.5 20t-65.5 66q-32 -51 -70.5 -68.5t-86.5 -17.5q-73 0 -117.5 43t-44.5 113q0 28 14 59.5t45 54.5h-100v74h234v-71q-60 -13 -86 -43t-26 -69q0 -37 23 -59.5t63 -22.5q50 0 79.5 32.5t33.5 85.5h77q5 -61 39 -89.5t77 -28.5q25 0 48.5 8.5t39 32.5t15.5 71
q0 62 -33 105.5t-84 68.5t-106 31q-8 -1 -16 -1q-29 0 -55.5 11t-48.5 41.5t-38 86.5l83 27q15 -55 29 -73t36 -18q20 0 38 12t49 53l31 40q34 44 62.5 70t60.5 38t76 12l6 -77q-35 -2 -58 -11t-43 -28.5t-46 -52.5l-23 -30q-21 -27 -40 -45q100 -35 151.5 -105t51.5 -156
q0 -64 -24 -106t-65 -63t-93 -21z" />
    <glyph glyph-name="dzatelu" unicode="&#xc59;" horiz-adv-x="731" 
d="M534 825q62 0 96.5 -34t34.5 -86q0 -37 -13 -61t-33 -40q-30 -22 -67.5 -29t-101.5 -7h-356v75h328q-9 15 -14.5 32t-5.5 38q0 27 13.5 52.5t42.5 42.5t76 17zM471 702q0 -31 23 -59h4q47 0 72.5 14.5t25.5 48.5q0 22 -15 37.5t-46 15.5t-47.5 -15.5t-16.5 -41.5z
M530 -12q-53 0 -90 20t-65 66q-37 -52 -76.5 -69t-93.5 -17q-55 0 -91.5 19.5t-54.5 52t-18 70.5q0 61 37.5 97t110.5 62q41 15 65 32t24 50q0 23 -16.5 39.5t-58.5 16.5q-43 0 -64 -16.5t-21 -45.5q0 -13 3.5 -24t6.5 -18l-75 -21q-17 31 -17 73q0 32 17 60.5t54 46.5
t96 18q54 0 87.5 -17t49.5 -43.5t19 -54.5q31 -29 73.5 -43.5t81.5 -14.5q78 0 78 49q0 28 -21 38.5t-50 10.5q-18 0 -33 -2t-28 -4l-10 72q12 3 32 6t47 3q36 0 69 -11t54 -38t21 -74q0 -53 -41.5 -89t-119.5 -36q-54 0 -96 15.5t-71 38.5q-15 -27 -44.5 -46t-73.5 -35
q-53 -20 -78.5 -40.5t-25.5 -53.5q0 -29 20.5 -46.5t63.5 -17.5q62 0 93.5 32.5t35.5 85.5h78q4 -61 36 -89.5t77 -28.5q47 0 69 20t22 55q0 23 -7 42t-18 37l74 31q15 -22 24.5 -53.5t9.5 -63.5q0 -69 -44.5 -108t-126.5 -39z" />
    <glyph glyph-name="rrratelu" unicode="&#xc5a;" horiz-adv-x="716" 
d="M512 -12q-55 0 -90 20t-64 66q-32 -53 -71 -70t-86 -17q-75 0 -120.5 56.5t-45.5 156.5q0 89 39 156.5t112.5 105.5t175.5 38t173 -38.5t108.5 -106t37.5 -155.5q0 -103 -45.5 -157.5t-123.5 -54.5zM354 425q-79 0 -132 -28.5t-79 -78.5h430q-25 50 -75.5 78.5
t-128.5 28.5h-15zM503 67q44 0 69.5 31t25.5 104q0 23 -3 44h-474q-3 -20 -3 -41q0 -75 24.5 -106.5t69.5 -31.5q47 0 75 32.5t32 85.5h78q5 -61 36.5 -89.5t69.5 -28.5z" />
    <glyph glyph-name="rrvocalictelu" unicode="&#xc60;" horiz-adv-x="1764" 
d="M533 -12q-52 0 -89.5 18.5t-68.5 67.5q-37 -52 -76.5 -69t-93.5 -17q-55 0 -91.5 19.5t-54.5 52t-18 70.5q0 61 37.5 97t110.5 62q41 15 65 32t24 50q0 23 -16.5 39.5t-58.5 16.5q-43 0 -64 -16.5t-21 -45.5q0 -13 3.5 -24t6.5 -18l-75 -21q-17 31 -17 73q0 32 17 60.5
t54 46.5t96 18q60 0 94 -20t48.5 -50t14.5 -60q0 -57 -33.5 -89t-99.5 -56q-53 -20 -78.5 -40.5t-25.5 -53.5q0 -29 20.5 -46.5t63.5 -17.5q62 0 93.5 32.5t35.5 85.5h78q5 -61 37 -89.5t74 -28.5q107 0 107 126q0 58 -23.5 101.5t-63 75t-89.5 53.5l37 77q62 -26 112 -70
t80 -102t30 -129q0 -101 -49.5 -156t-132.5 -55zM866 -12q-67 0 -117.5 34t-89.5 89l40 65q42 -55 83.5 -82t90.5 -27q51 0 78 32.5t27 93.5q0 58 -23.5 101.5t-63 75t-89.5 53.5l37 77q62 -26 112 -70t80 -102t30 -129q0 -99 -50 -155t-145 -56zM1212 -12q-67 0 -117.5 34
t-89.5 89l40 65q42 -55 82.5 -82t89.5 -27q53 0 80 32t27 90q0 55 -23.5 99t-63.5 78.5t-88 58.5l36 75h352q65 0 101.5 -8t63.5 -30q21 -16 34 -43.5t13 -65.5q0 -63 -38 -98t-103 -35q-50 0 -80 19t-43.5 48t-13.5 57q0 25 6 44.5t16 36.5h-208q53 -40 87.5 -99t34.5 -132
q0 -95 -50 -150.5t-145 -55.5zM1544 353q0 -30 17.5 -48.5t50.5 -18.5q35 0 49.5 18.5t14.5 45.5q0 42 -25.5 58.5t-71.5 16.5h-9q-26 -34 -26 -72z" />
    <glyph glyph-name="llvocalictelu" unicode="&#xc61;" horiz-adv-x="1227" 
d="M559 -75q-92 0 -138.5 44.5t-46.5 114.5q0 48 23 88t63 83q28 31 44.5 56t16.5 53q0 25 -17 42.5t-51 17.5q-46 0 -74.5 -32.5t-32.5 -88.5h-78q-3 62 -28.5 92t-63.5 30q-33 0 -48.5 -17.5t-15.5 -43.5q0 -25 6.5 -42.5t16.5 -34.5l-76 -24q-12 23 -21 50.5t-9 58.5
q0 59 41.5 93.5t99.5 34.5q48 0 80.5 -20t56.5 -66q27 44 63 65t87 21q54 0 85.5 -20t45 -50t13.5 -60q0 -50 -23.5 -86.5t-51.5 -68.5q-34 -37 -51.5 -65.5t-17.5 -62.5q0 -37 25 -60t80 -23q69 0 113.5 32t66 83.5t21.5 108.5q0 64 -29.5 117.5t-91.5 87.5l37 67h321
q65 0 101.5 -8t63.5 -30q21 -16 34 -43.5t13 -65.5q0 -63 -38.5 -98t-102.5 -35q-50 0 -80 19t-43.5 48t-13.5 57q0 25 6 44.5t16 36.5h-183q38 -40 55.5 -89t17.5 -109q0 -92 -38.5 -160t-103.5 -105t-145 -37zM1007 353q0 -30 17.5 -48.5t50.5 -18.5q35 0 49.5 18.5
t14.5 45.5q0 41 -25 58t-72 17h-9q-26 -35 -26 -72z" />
    <glyph glyph-name="lvocalicvowelsigntelu" unicode="&#xc62;" 
d="M-196 -467q-66 0 -100 33t-34 86q0 33 14 61.5t42 56.5q22 23 32.5 38.5t10.5 31.5q0 14 -10 24.5t-34 10.5q-25 0 -44 -20t-21 -59h-68q-3 42 -17 60.5t-42 18.5q-20 0 -29.5 -11t-9.5 -28q0 -13 5 -26.5t11 -24.5l-65 -20q-12 20 -17 41t-5 40q0 44 30.5 68.5
t70.5 24.5q39 0 62 -14t40 -45q21 31 46.5 45t62.5 14q38 0 61 -14t33.5 -35t10.5 -43q0 -33 -14.5 -56t-37.5 -49q-25 -28 -36.5 -48.5t-11.5 -40.5q0 -25 17.5 -40t51.5 -15q46 0 75 22t43 57t14 74t-18.5 73t-57.5 59l52 56q54 -38 75 -86t21 -103q0 -71 -28 -119.5
t-75.5 -73t-105.5 -24.5z" />
    <glyph glyph-name="llvocalicvowelsigntelu" unicode="&#xc63;" horiz-adv-x="324" 
d="M201 -299q-45 0 -73 17t-40.5 42.5t-12.5 50.5q0 19 4.5 34.5t12.5 29.5h-119q21 -28 30.5 -59.5t9.5 -65.5q0 -71 -28 -119.5t-75.5 -73t-105.5 -24.5q-66 0 -100 33t-34 86q0 33 14 61.5t42 56.5q22 23 32.5 38.5t10.5 31.5q0 14 -10 24.5t-34 10.5q-25 0 -44 -20
t-21 -59h-68q-3 42 -17 60.5t-42 18.5q-20 0 -29.5 -11t-9.5 -28q0 -13 5 -26.5t11 -24.5l-65 -20q-12 20 -17 41t-5 40q0 44 30.5 68.5t70.5 24.5q39 0 62 -14t40 -45q21 31 46.5 45t62.5 14q38 0 61 -14t33.5 -35t10.5 -43q0 -33 -14.5 -56t-37.5 -49q-25 -28 -36.5 -48.5
t-11.5 -40.5q0 -25 17.5 -40t51.5 -15q46 0 75 22t43 57t14 74t-18.5 73t-57.5 59l40 56h219q58 0 93.5 -5.5t63.5 -26.5q20 -14 31.5 -35.5t11.5 -53.5q0 -55 -33.5 -86t-89.5 -31zM142 -179q0 -25 15.5 -41t43.5 -16t42 15t14 35q0 34 -23.5 47.5t-64.5 13.5h-8
q-19 -25 -19 -54z" />
    <glyph glyph-name="zerotelu" unicode="&#xc66;" horiz-adv-x="675" 
d="M49 312q0 94 33 166.5t97 113.5t157 41q92 0 157 -41t99 -113.5t34 -166.5q0 -98 -33 -171t-97.5 -113t-159.5 -40q-94 0 -158 42t-96.5 115.5t-32.5 166.5zM136 310q0 -112 49 -177.5t151 -65.5q101 0 152 65t51 178q0 112 -51 178t-152 66q-100 0 -150 -66t-50 -178z
" />
    <glyph glyph-name="onetelu" unicode="&#xc67;" horiz-adv-x="665" 
d="M331 633q83 0 147.5 -37t101 -107.5t36.5 -171.5q0 -72 -13 -130t-33 -105.5t-42 -89.5l-86 37q32 55 60 124t28 161q0 67 -20.5 121.5t-64.5 86.5t-114 32q-94 0 -145 -63t-51 -177q0 -89 27 -156.5t61 -128.5l-87 -37q-36 71 -61.5 149.5t-25.5 173.5q0 88 31 160
t93.5 115t157.5 43z" />
    <glyph glyph-name="twotelu" unicode="&#xc68;" horiz-adv-x="773" 
d="M442 633q87 0 150.5 -43.5t97.5 -117t34 -163.5q0 -69 -19 -121t-51 -90q-43 -50 -113.5 -74t-185.5 -24h-340v80h316q71 0 119 6.5t80 21.5t55 40q25 26 38.5 65.5t13.5 94.5q0 74 -24.5 132t-65.5 85q11 -27 11 -50q0 -63 -39 -99.5t-104 -36.5q-75 0 -114 39.5
t-39 100.5q0 65 45.5 109.5t134.5 44.5zM343 480q0 -31 18 -48.5t51 -17.5q32 0 50.5 18.5t18.5 50.5q0 20 -7.5 41.5t-20.5 34.5q-8 1 -16 1q-52 0 -73 -23t-21 -57z" />
    <glyph glyph-name="threetelu" unicode="&#xc69;" horiz-adv-x="546" 
d="M272 -12q-84 0 -144.5 25.5t-113.5 59.5l40 76q40 -31 92.5 -56.5t126.5 -25.5q71 0 106 29t35 72q0 49 -37 75q-21 15 -57.5 22t-110.5 7h-20v79h29q65 0 97 6.5t53 18.5q46 28 46 81q0 44 -35 70.5t-103 26.5q-79 0 -131.5 -26t-90.5 -56l-40 76q21 15 57.5 35t87 35
t113.5 15q68 0 119 -21t80 -59t29 -91q0 -48 -23.5 -86.5t-82.5 -63.5q52 -21 79 -57.5t27 -88.5q0 -49 -25.5 -89.5t-76.5 -64.5t-126 -24z" />
    <glyph glyph-name="fourtelu" unicode="&#xc6a;" horiz-adv-x="686" 
d="M342 -12q-39 0 -76 11t-61 37t-24 72q0 51 46 82q-88 25 -136.5 83t-48.5 139q0 66 37.5 125t116.5 96l37 -71q-55 -27 -80 -66.5t-25 -83.5q0 -78 53.5 -117.5t161.5 -46.5q108 7 162 46.5t54 117.5q0 44 -25.5 84.5t-80.5 65.5l37 71q79 -37 117 -96t38 -125
q0 -80 -47 -138t-140 -84q47 -31 47 -82q0 -46 -24 -72t-61 -37t-78 -11zM264 114q0 -26 20.5 -38t57.5 -12t58.5 12t21.5 38q0 21 -20.5 38.5t-61.5 23.5q-45 -9 -60.5 -27t-15.5 -35z" />
    <glyph glyph-name="fivetelu" unicode="&#xc6b;" horiz-adv-x="711" 
d="M255 -12q-75 0 -131.5 20.5t-103.5 50.5l40 75q38 -29 84.5 -48t95.5 -19q52 0 94.5 23t67.5 77.5t25 146.5q0 119 -49.5 179.5t-137.5 60.5q-47 0 -94 -18.5t-86 -48.5l-40 76q52 33 106.5 51.5t122.5 18.5q65 0 121.5 -29.5t93.5 -90.5t45 -156q38 3 58 28.5t20 62.5
q0 35 -17 69.5t-56 64.5l68 50q90 -76 90 -174q0 -58 -26.5 -92.5t-70.5 -55.5q47 -21 72 -57t25 -90q0 -52 -25 -96t-66 -79l-67 51q38 30 55.5 63t17.5 68q0 37 -19 62t-59 29q-12 -131 -80.5 -202t-173.5 -71z" />
    <glyph glyph-name="sixtelu" unicode="&#xc6c;" horiz-adv-x="698" 
d="M46 167q0 54 25.5 89.5t62.5 56.5q-38 23 -58 56t-20 79q0 45 17.5 78t43.5 52q20 14 43 23.5t55.5 14t83.5 4.5h6v-80h-5q-81 0 -115 -21q-20 -12 -31.5 -29.5t-11.5 -45.5q0 -25 10 -42t27 -28q17 -10 35 -15t47 -7t77 -2h125v-80h-155q-57 0 -85 -5t-47 -16
q-20 -12 -31.5 -29t-11.5 -46q0 -30 14.5 -49t39.5 -30q18 -7 47.5 -11t95.5 -4h353v-80h-343q-67 0 -111 4.5t-74 16t-55 31.5q-23 20 -38.5 49.5t-15.5 65.5z" />
    <glyph glyph-name="seventelu" unicode="&#xc6d;" horiz-adv-x="573" 
d="M278 -12q-87 0 -138.5 24.5t-74 64.5t-22.5 86q0 74 57 119t167 79q83 26 124.5 48.5t41.5 67.5q0 33 -33 55t-102 22q-83 0 -121 -21t-38 -58q0 -17 5.5 -32t9.5 -23l-76 -26q-25 39 -25 88q0 39 24.5 73.5t77 56t135.5 21.5q89 0 139 -25t70.5 -61.5t20.5 -72.5
q0 -48 -23 -80.5t-68 -56t-111 -45.5q-67 -22 -108.5 -40t-61 -39.5t-19.5 -54.5q0 -40 35 -65.5t114 -25.5q93 0 131 24t38 64q0 18 -5.5 33.5t-9.5 23.5l76 22q12 -20 18.5 -41t6.5 -50q0 -37 -22 -73t-77 -59t-156 -23z" />
    <glyph glyph-name="eighttelu" unicode="&#xc6e;" horiz-adv-x="803" 
d="M323 -12q-81 0 -142.5 37t-96.5 103t-35 153q0 84 30 158t84 131l66 -54q-40 -43 -67 -96t-27 -133q0 -56 18.5 -106.5t60 -82t111.5 -31.5q100 0 148.5 63t48.5 166q0 47 -14.5 94.5t-47 89.5t-85.5 71l30 69h384v-80h-288q53 -40 80.5 -106t27.5 -141q0 -85 -30.5 -154
t-94 -110t-161.5 -41z" />
    <glyph glyph-name="ninetelu" unicode="&#xc6f;" horiz-adv-x="698" 
d="M56 172q0 46 20 79t58 56q-37 21 -62.5 56.5t-25.5 89.5q0 36 15.5 66t38.5 49q25 20 55 31.5t74 16t111 4.5h343v-80h-353q-66 0 -95.5 -3.5t-47.5 -11.5q-25 -10 -39.5 -29.5t-14.5 -49.5q0 -28 11.5 -45.5t31.5 -29.5q19 -11 47 -16t85 -5h155v-80h-125q-48 0 -77 -2
t-47 -7t-35 -15t-27 -27.5t-10 -42.5q0 -28 11.5 -45.5t31.5 -29.5q34 -21 115 -21h5v-80h-6q-51 0 -83.5 4.5t-55.5 14t-43 23.5q-26 19 -43.5 52t-17.5 78z" />
    <glyph glyph-name="uni0C77" unicode="&#xc77;" horiz-adv-x="1044" 
d="M140 489q-9 -42 -12.5 -81.5t-3.5 -83.5q0 -147 48 -251t139 -158.5t221 -54.5q184 0 284.5 102t100.5 286q0 112 -37 193.5t-106 125.5t-165 44q-76 0 -139 -29t-101 -90.5t-38 -158.5q0 -108 54 -167t147 -59q91 0 138.5 41.5t47.5 119.5q0 65 -30 101.5t-87 36.5
q-42 0 -65.5 -18.5t-23.5 -53.5q0 -28 14 -43.5t39 -15.5q21 0 33.5 4.5t25.5 14.5l37 -59q-13 -12 -39 -21.5t-60 -9.5q-57 0 -92.5 36t-35.5 94q0 36 19.5 68t57.5 52t93 20q57 0 101 -26.5t68.5 -73t24.5 -106.5q0 -110 -72 -170t-194 -60q-86 0 -149 36t-97.5 102.5
t-34.5 157.5q0 104 45 182.5t126 122t187 43.5q80 0 150.5 -27t124.5 -81t85 -135.5t31 -190.5q0 -156 -61 -258.5t-167 -153t-242 -50.5q-150 0 -259 63.5t-168 183t-59 286.5q0 42 4.5 85.5t12.5 88.5z" />
    <glyph glyph-name="uni0C78" unicode="&#xc78;" horiz-adv-x="622" 
d="M44 369q0 79 33 138.5t92.5 92.5t137.5 33q79 0 138.5 -32t92.5 -91t33 -139q0 -88 -44 -150q51 -55 51 -119q0 -51 -22 -87.5t-62 -63.5t-96 -52l-39 79q69 29 101 54t32 63q0 35 -24 69q-67 -43 -161 -43q-80 0 -139 30.5t-91.5 86.5t-32.5 131zM131 378q0 -78 44 -128
t132 -50t132.5 48.5t44.5 124.5q0 50 -19.5 91t-58.5 65.5t-99 24.5t-99 -24t-58 -64t-19 -88z" />
    <glyph glyph-name="uni0C79" unicode="&#xc79;" horiz-adv-x="273" 
d="M180 0h-87v620h87v-620z" />
    <glyph glyph-name="uni0C7A" unicode="&#xc7a;" horiz-adv-x="489" 
d="M214 216q-34 0 -60 10t-44 28q-22 22 -33 56.5t-11 104.5v205h86v-203q0 -45 4 -63.5t11 -30.5q17 -29 61 -29q46 0 65 26q8 11 12 29t4 58v213h87v-620h-87v254q-18 -17 -41 -27.5t-54 -10.5z" />
    <glyph glyph-name="uni0C7B" unicode="&#xc7b;" horiz-adv-x="693" 
d="M208 216q-34 0 -58.5 10t-41.5 28q-20 22 -31 56.5t-11 104.5v205h86v-212q0 -42 3.5 -59.5t10.5 -28.5q15 -26 53 -26q40 0 56 26q8 11 11.5 29t3.5 58v213h86v-212q0 -42 3 -59.5t10 -28.5q15 -26 53 -26q41 0 57 26q8 11 11 29t3 58v213h88v-620h-88v247
q-16 -15 -36 -23t-46 -8q-33 0 -57.5 10t-41.5 28q-8 8 -13 16q-18 -22 -44.5 -38t-66.5 -16z" />
    <glyph glyph-name="uni0C7C" unicode="&#xc7c;" horiz-adv-x="610" 
d="M32 275v79h546v-79h-546z" />
    <glyph glyph-name="uni0C7D" unicode="&#xc7d;" horiz-adv-x="598" 
d="M46 128q0 52 34 83t88.5 50t116.5 33q50 12 80.5 21t45 23t14.5 38q0 31 -27 39.5t-66 8.5h-285v76h277q65 0 96 -8.5t50 -22.5q42 -30 42 -91q0 -52 -31.5 -82.5t-81.5 -47.5t-107 -30q-75 -16 -117 -34t-42 -54q0 -34 27.5 -42.5t78.5 -8.5h344v-79h-335q-69 0 -103 9
t-55 25q-23 18 -33.5 42.5t-10.5 51.5z" />
    <glyph glyph-name="uni0C7E" unicode="&#xc7e;" horiz-adv-x="598" 
d="M46 90q0 34 18.5 55.5t67.5 37.5t138 31q72 12 104.5 20t41.5 14.5t9 13.5q0 13 -13 15.5t-27 2.5h-182q-47 0 -75.5 4.5t-46.5 17.5q-16 11 -25.5 27t-9.5 39q0 33 18.5 55t67.5 38t138 31q72 12 104.5 19.5t41.5 14t9 14.5q0 13 -13 15.5t-27 2.5h-338v75h304
q52 0 83 -5.5t52 -22.5q12 -9 19 -23.5t7 -35.5q0 -29 -16 -50.5t-60.5 -37.5t-130.5 -31q-77 -13 -114 -22t-47.5 -15.5t-10.5 -15.5q0 -18 36 -18h182q52 0 83 -6t50 -21q13 -10 20.5 -25.5t7.5 -35.5q0 -29 -16 -50.5t-60.5 -38t-130.5 -31.5q-77 -13 -114 -21.5
t-47.5 -15t-10.5 -15.5q0 -17 36 -17h414v-79h-380q-47 0 -75.5 5.5t-46.5 17.5q-16 11 -25.5 27.5t-9.5 39.5z" />
    <glyph glyph-name="uni0C7F" unicode="&#xc7f;" horiz-adv-x="742" 
d="M328 -12q-139 0 -210.5 73.5t-71.5 195.5q0 77 27 131.5t72.5 83t102.5 28.5q60 0 96.5 -34t36.5 -93q0 -61 -39.5 -100.5t-119.5 -39.5q-29 0 -52.5 7.5t-41.5 18.5v-3v-6q0 -83 52.5 -133t152.5 -50q89 0 146 33t93 94t61 144l84 -30q-22 -69 -53 -127t-76.5 -101.5
t-109 -67.5t-150.5 -24zM242 427q-39 0 -65.5 -26.5t-39.5 -70.5q15 -10 34.5 -17.5t45.5 -7.5q41 0 61.5 17t20.5 47q0 29 -16 43.5t-41 14.5z" />
    <glyph glyph-name="kassatelu" horiz-adv-x="522" 
d="M264 -12q-97 0 -162.5 40t-83.5 118l86 23q14 -46 49.5 -74t113.5 -28q79 0 110 20.5t31 53.5q0 30 -23.5 49t-87.5 23l-65 5q-52 4 -89.5 12.5t-61.5 27.5q-21 16 -32.5 40.5t-11.5 58.5q0 62 53.5 102.5t161.5 40.5q66 0 110.5 -12.5t74 -43t47.5 -84.5l-86 -22
q-13 44 -45 65.5t-101 21.5q-76 0 -104 -19t-28 -48q0 -27 22.5 -42.5t88.5 -20.5l77 -5q52 -4 84.5 -15t53.5 -28q23 -19 34 -46t11 -59q0 -75 -57 -114.5t-170 -39.5zM375 -202q-41 0 -68 19.5t-46 53.5q-20 -36 -46 -54.5t-68 -18.5q-61 0 -94.5 39t-33.5 102
q0 18 1.5 31t3.5 23l70 -8q-2 -7 -3 -18.5t-1 -22.5q0 -32 15.5 -53.5t46.5 -21.5q32 0 51.5 22.5t23.5 62.5h68q5 -39 24.5 -62t53.5 -23q29 0 44 21t15 55q0 11 -1 22t-3 18l69 10q3 -12 4.5 -25t1.5 -31q0 -53 -26 -91q1 -19 11.5 -30t31.5 -11q11 0 20.5 2t16.5 5
l20 -64q-16 -7 -31.5 -10.5t-35.5 -3.5q-36 0 -61 17t-34 50q-19 -5 -40 -5zM234 425q-29 0 -55.5 11t-48.5 41.5t-38 86.5l83 27q15 -55 29 -73t36 -18q20 0 37.5 12.5t49.5 52.5l31 40q34 44 62.5 70t60.5 38t76 12l6 -77q-35 -2 -58.5 -11t-43 -28.5t-45.5 -52.5l-23 -30
q-42 -54 -78 -77.5t-81 -23.5z" />
    <glyph glyph-name="kahalanttelu" horiz-adv-x="522" 
d="M264 -12q-97 0 -162.5 40t-83.5 118l86 23q14 -46 49.5 -74t113.5 -28q79 0 110 20.5t31 53.5q0 30 -23.5 49t-87.5 23l-65 5q-52 4 -89.5 12.5t-61.5 27.5q-21 16 -32.5 40.5t-11.5 58.5q0 62 53.5 102.5t161.5 40.5q66 0 110.5 -12.5t74 -43t47.5 -84.5l-86 -22
q-13 44 -45 65.5t-101 21.5q-76 0 -104 -19t-28 -48q0 -27 22.5 -42.5t88.5 -20.5l77 -5q52 -4 84.5 -15t53.5 -28q23 -19 34 -46t11 -59q0 -75 -57 -114.5t-170 -39.5zM91 540q0 52 48 87q-56 37 -56 97q0 27 10 47t28 34q21 17 54.5 25t102.5 8h287v-75h-303q-34 0 -49 -2
t-24 -7q-23 -11 -23 -37q0 -28 21 -39q10 -5 26.5 -7.5t47.5 -2.5h137v-75h-141q-28 0 -43.5 -3.5t-23.5 -9.5q-16 -12 -16 -34q0 -24 16 -35q9 -7 23 -9t36 -2h37v-75h-38q-71 0 -114 27.5t-43 87.5z" />
    <glyph glyph-name="khahalanttelu" horiz-adv-x="755" 
d="M518 -12q-51 0 -92 16t-87 47q-32 -30 -74 -46.5t-90 -16.5q-55 0 -86.5 16.5t-45.5 42.5t-14 54q0 46 35.5 77t100.5 31q40 0 78 -15t81 -43q16 39 16 93q0 40 -7.5 75t-28.5 63q2 -10 2 -21q0 -55 -36.5 -88.5t-97.5 -33.5q-36 0 -67 15t-50 44t-19 70q0 55 41.5 93.5
t113.5 38.5q65 0 109 -24t70.5 -62t38.5 -82t12 -83t-9 -74t-26 -65q32 -21 62.5 -32t71.5 -11q59 0 88 32t29 93q0 60 -22 103.5t-57 75t-76 54.5q-64 3 -102 31t-38 84q0 52 48 87q-56 37 -56 97q0 27 10 47t28 34q21 17 54.5 25t102.5 8h288v-75h-304q-34 0 -49 -2
t-24 -7q-23 -11 -23 -37q0 -28 21 -39q10 -5 26.5 -7.5t48.5 -2.5h137v-75h-142q-28 0 -43.5 -3.5t-23.5 -9.5q-16 -12 -16 -34q0 -24 16 -35q9 -7 23.5 -9t37.5 -2h4q101 -46 157.5 -124.5t56.5 -177.5t-55 -154.5t-147 -55.5zM112 369q0 -27 15.5 -44t46.5 -17
q30 0 49.5 14.5t19.5 48.5q0 30 -15 56q-19 5 -40 5q-37 0 -56.5 -18t-19.5 -45zM105 102q0 -39 71 -39q63 0 103 30q-30 22 -57 33.5t-58 11.5q-32 0 -45.5 -11t-13.5 -25zM298 -125l7 141h75l8 -141h-90z" />
    <glyph glyph-name="gahalanttelu" horiz-adv-x="583" 
d="M294 500q117 0 183 -65t66 -180q0 -63 -12 -111t-29.5 -85t-36.5 -67l-83 37q19 28 37 58t29.5 68.5t11.5 89.5q0 49 -16 90t-53.5 65.5t-101.5 24.5q-76 0 -121 -47t-45 -132q0 -68 22 -119.5t56 -97.5l-83 -37q-34 52 -56 116t-22 137q0 69 28.5 127t85 93t140.5 35z
M117 540q0 52 48 87q-56 37 -56 97q0 27 10 47t28 34q21 17 54.5 25t102.5 8h287v-75h-303q-34 0 -49 -2t-24 -7q-23 -11 -23 -37q0 -28 21 -39q10 -5 26.5 -7.5t47.5 -2.5h137v-75h-141q-28 0 -43.5 -3.5t-23.5 -9.5q-16 -12 -16 -34q0 -24 16 -35q9 -7 23 -9t36 -2h37v-75
h-38q-71 0 -114 27.5t-43 87.5z" />
    <glyph glyph-name="ghahalanttelu" horiz-adv-x="1058" 
d="M485 -12q-54 0 -92 22t-72 61q-27 -37 -59.5 -60t-86.5 -23q-53 0 -85 22t-46.5 56.5t-14.5 71.5q0 65 41 104.5t100 39.5q36 0 64 -12.5t55 -39t59 -69.5q27 -35 48 -56t43 -29.5t51 -8.5q50 0 76.5 32.5t26.5 93.5q0 58 -23 101.5t-63 75t-90 53.5l38 77
q62 -26 112 -70t79.5 -102.5t29.5 -129.5q0 -20 -2 -38q38 -47 77 -70t84 -23q51 0 78 32.5t27 93.5q0 58 -23.5 101.5t-63 75t-89.5 53.5l37 77q62 -26 112 -70t80 -102t30 -129q0 -99 -50 -155t-145 -56q-55 0 -99.5 24t-79.5 64q-48 -88 -164 -88zM107 136
q0 -31 19.5 -52t53.5 -21q32 0 54 18t38 52q-29 39 -49.5 56.5t-50.5 17.5q-28 0 -46.5 -18t-18.5 -53zM280 -125l7 141h75l8 -141h-90zM100 540q0 52 48 87q-56 37 -56 97q0 27 10 47t28 34q21 17 54.5 25t102.5 8h287v-75h-303q-34 0 -49 -2t-24 -7q-23 -11 -23 -37
q0 -28 21 -39q10 -5 26.5 -7.5t47.5 -2.5h137v-75h-141q-28 0 -43.5 -3.5t-23.5 -9.5q-16 -12 -16 -34q0 -24 16 -35q9 -7 23 -9t36 -2h37v-75h-38q-71 0 -114 27.5t-43 87.5z" />
    <glyph glyph-name="ngahalanttelu" horiz-adv-x="731" 
d="M530 -12q-53 0 -90 20t-65 66q-37 -52 -76.5 -69t-93.5 -17q-55 0 -91.5 19.5t-54.5 52t-18 70.5q0 61 37.5 97t110.5 62q41 15 65 32t24 50q0 23 -16.5 39.5t-58.5 16.5q-43 0 -64 -16.5t-21 -45.5q0 -13 3.5 -24t6.5 -18l-75 -21q-17 31 -17 73q0 32 17 60.5t54 46.5
t96 18q60 0 94 -20t48.5 -50t14.5 -60v-13h99l-7 143h93l-7 -143h127v-72h-335q-16 -19 -42 -33t-61 -27q-53 -20 -78.5 -40.5t-25.5 -53.5q0 -29 20.5 -46.5t63.5 -17.5q62 0 93.5 32.5t35.5 85.5h78q4 -61 36 -89.5t77 -28.5q50 0 70.5 20t20.5 55q0 23 -7 42t-18 37
l74 31q15 -22 24.5 -53.5t9.5 -63.5q0 -69 -44.5 -108t-126.5 -39zM337 540q0 52 48 87q-56 37 -56 97q0 27 10 47t28 34q21 17 54.5 25t102.5 8h287v-75h-303q-34 0 -49 -2t-24 -7q-23 -11 -23 -37q0 -28 21 -39q10 -5 26.5 -7.5t47.5 -2.5h137v-75h-141q-28 0 -43.5 -3.5
t-23.5 -9.5q-16 -12 -16 -34q0 -24 16 -35q9 -7 23 -9t36 -2h37v-75h-38q-71 0 -114 27.5t-43 87.5z" />
    <glyph glyph-name="cahalanttelu" horiz-adv-x="760" 
d="M543 -12q-58 0 -92.5 20t-65.5 66q-32 -51 -70.5 -68.5t-86.5 -17.5q-73 0 -117.5 43t-44.5 113q0 28 14 59.5t45 54.5h-100v74h234v-71q-60 -13 -86 -43t-26 -69q0 -37 23 -59.5t63 -22.5q50 0 79.5 32.5t33.5 85.5h77q5 -61 38.5 -89.5t73.5 -28.5q28 0 52.5 10
t39.5 37t15 78q0 69 -31 117t-79 76.5t-98 39.5h-16q-71 0 -114 27.5t-43 87.5q0 52 48 87q-56 37 -56 97q0 27 10 47t28 34q21 17 54.5 25t102.5 8h287v-75h-303q-34 0 -49 -2t-24 -7q-23 -11 -23 -37q0 -28 21 -39q10 -5 26.5 -7.5t48.5 -2.5h136v-75h-141
q-28 0 -43.5 -3.5t-23.5 -9.5q-16 -12 -16 -34q0 -24 16 -35q9 -7 23.5 -9t36.5 -2h42q128 -34 195.5 -115.5t67.5 -190.5q0 -70 -24 -115.5t-65 -68t-93 -22.5z" />
    <glyph glyph-name="chahalanttelu" horiz-adv-x="760" 
d="M543 -12q-58 0 -92.5 20t-65.5 66q-32 -51 -70.5 -68.5t-86.5 -17.5q-73 0 -117.5 43t-44.5 113q0 28 14 59.5t45 54.5h-100v74h234v-71q-60 -13 -86 -43t-26 -69q0 -37 23 -59.5t63 -22.5q50 0 79.5 32.5t33.5 85.5h77q5 -61 38.5 -89.5t73.5 -28.5q28 0 52.5 10
t39.5 37t15 78q0 69 -31 117t-79 76.5t-98 39.5h-16q-71 0 -114 27.5t-43 87.5q0 52 48 87q-56 37 -56 97q0 27 10 47t28 34q21 17 54.5 25t102.5 8h287v-75h-303q-34 0 -49 -2t-24 -7q-23 -11 -23 -37q0 -28 21 -39q10 -5 26.5 -7.5t48.5 -2.5h136v-75h-141
q-28 0 -43.5 -3.5t-23.5 -9.5q-16 -12 -16 -34q0 -24 16 -35q9 -7 23.5 -9t36.5 -2h42q128 -34 195.5 -115.5t67.5 -190.5q0 -70 -24 -115.5t-65 -68t-93 -22.5zM340 -125l7 141h75l8 -141h-90z" />
    <glyph glyph-name="jahalanttelu" horiz-adv-x="731" 
d="M530 -12q-53 0 -90 20t-65 66q-37 -52 -76.5 -69t-93.5 -17q-55 0 -91.5 19.5t-54.5 52t-18 70.5q0 61 37.5 97t110.5 62q41 15 65 32t24 50q0 23 -16.5 39.5t-58.5 16.5q-43 0 -64 -16.5t-21 -45.5q0 -13 3.5 -24t6.5 -18l-75 -21q-17 31 -17 73q0 32 17 60.5t54 46.5
t96 18q54 0 87.5 -17t49.5 -43.5t19 -54.5q31 -29 73.5 -43.5t81.5 -14.5q42 0 60 13t18 36q0 29 -21.5 39t-53.5 10h-17q-42 0 -73 7.5t-52 23.5q-17 14 -27.5 34.5t-10.5 49.5q0 52 48 87q-56 37 -56 97q0 27 10 47t28 34q21 17 54.5 25t102.5 8h287v-75h-303
q-34 0 -49 -2t-24 -7q-23 -11 -23 -37q0 -28 21 -39q10 -5 26.5 -7.5t47.5 -2.5h137v-75h-141q-28 0 -43.5 -3.5t-23.5 -9.5q-16 -12 -16 -34q0 -24 16 -35q9 -7 23.5 -9t38.5 -2h13q43 0 70 -6.5t47 -20.5t32.5 -37.5t12.5 -58.5q0 -53 -39.5 -89t-121.5 -36
q-54 0 -96 15.5t-71 38.5q-15 -27 -44.5 -46t-73.5 -35q-53 -20 -78.5 -40.5t-25.5 -53.5q0 -29 20.5 -46.5t63.5 -17.5q62 0 93.5 32.5t35.5 85.5h78q4 -61 36 -89.5t77 -28.5q47 0 69 20t22 55q0 23 -7 42t-18 37l74 31q15 -22 24.5 -53.5t9.5 -63.5q0 -69 -44.5 -108
t-126.5 -39z" />
    <glyph glyph-name="jhahalanttelu" horiz-adv-x="1286" 
d="M35 236q0 78 33 137.5t91.5 93t136.5 33.5q79 0 137.5 -32.5t91.5 -91.5t33 -139q0 -37 -8 -71q39 -50 79 -74.5t87 -24.5q51 0 78 32.5t27 93.5q0 58 -23.5 101.5t-63 75t-89.5 53.5l37 77q62 -26 112 -70t80 -102t30 -129q0 -21 -2 -39q38 -47 77 -70t84 -23
q51 0 78 32.5t27 93.5q0 58 -23.5 101.5t-63 75t-89.5 53.5l37 77q62 -26 112 -70t80 -102t30 -129q0 -99 -50 -155t-145 -56q-55 0 -99.5 24t-79.5 64q-23 -42 -65.5 -65t-102.5 -23q-61 0 -108 28.5t-84 75.5q-33 -49 -89.5 -76.5t-131.5 -27.5q-79 0 -137.5 31t-91 86.5
t-32.5 130.5zM118 248q0 -81 45 -131t133 -50q89 0 134 49.5t45 125.5q0 51 -19.5 92.5t-59 66t-100.5 24.5t-100.5 -24.5t-58.5 -64.5t-19 -88zM837 -125l7 141h75l8 -141h-90zM107 540q0 52 48 87q-56 37 -56 97q0 27 10 47t28 34q21 17 54.5 25t102.5 8h287v-75h-303
q-34 0 -49 -2t-24 -7q-23 -11 -23 -37q0 -28 21 -39q10 -5 26.5 -7.5t47.5 -2.5h137v-75h-141q-28 0 -43.5 -3.5t-23.5 -9.5q-16 -12 -16 -34q0 -24 16 -35q9 -7 23 -9t36 -2h37v-75h-38q-71 0 -114 27.5t-43 87.5z" />
    <glyph glyph-name="nyahalanttelu" horiz-adv-x="979" 
d="M300 -12q-108 0 -157.5 39t-49.5 105q0 63 51 100t148 37q82 0 144.5 -29t103.5 -73q31 48 31 119q0 73 -29 104t-73 31t-69.5 -30t-33.5 -73h-78q-18 107 -104 107q-37 0 -54.5 -17.5t-17.5 -43.5q0 -16 4.5 -32.5t9.5 -26.5l-76 -22q-8 17 -14.5 38.5t-6.5 50.5
q0 39 20.5 67.5t55 44.5t76.5 16q51 0 85.5 -20.5t60.5 -65.5q30 51 69 68.5t80 17.5q62 0 107.5 -37.5t61.5 -105.5h97l-7 143h93l-7 -143h127v-72h-295q0 -60 -17.5 -105.5t-49.5 -80.5q23 -48 23 -99q0 -25 -4 -49.5t-14 -47.5l-73 15q7 17 10.5 38t3.5 48q0 24 -6 46
q-43 -29 -97 -45.5t-129 -16.5zM176 132q0 -33 30 -51t96 -18q57 0 106 13t83 39q-30 36 -81 57.5t-118 21.5q-57 0 -86.5 -16.5t-29.5 -45.5zM601 540q0 52 48 87q-56 37 -56 97q0 27 10 47t28 34q21 17 54.5 25t102.5 8h287v-75h-303q-34 0 -49 -2t-24 -7q-23 -11 -23 -37
q0 -28 21 -39q10 -5 26.5 -7.5t47.5 -2.5h137v-75h-141q-28 0 -43.5 -3.5t-23.5 -9.5q-16 -12 -16 -34q0 -24 16 -35q9 -7 23 -9t36 -2h37v-75h-38q-71 0 -114 27.5t-43 87.5z" />
    <glyph glyph-name="ttahalanttelu" horiz-adv-x="772" 
d="M555 -12q-52 0 -89.5 18.5t-68.5 66.5q-33 -52 -73.5 -68.5t-87.5 -16.5q-63 0 -107 31t-67 86t-23 127q0 78 22.5 132.5t58.5 86.5t78 43l-6 130h90l-6 -126q50 -8 78 -41t28 -84q0 -61 -37.5 -99.5t-117.5 -38.5q-31 0 -58.5 9.5t-49.5 23.5q-1 -13 -1 -26v-8
q0 -41 10.5 -79.5t37 -63t72.5 -24.5q58 0 87 32.5t33 85.5h78q5 -61 37 -89.5t74 -28.5q107 0 107 126q0 85 -44.5 141t-120.5 93q-54 7 -85.5 34.5t-31.5 78.5q0 52 48 87q-56 37 -56 97q0 27 10 47t28 34q21 17 54.5 25t102.5 8h287v-75h-303q-34 0 -49 -2t-24 -7
q-23 -11 -23 -37q0 -28 21 -39q10 -5 26.5 -7.5t47.5 -2.5h137v-75h-141q-28 0 -43.5 -3.5t-23.5 -9.5q-16 -12 -16 -34q0 -24 16 -35q9 -7 22.5 -9t25.5 -2h3q101 -47 158 -125t57 -177q0 -101 -49.5 -155.5t-132.5 -54.5zM244 429q-37 0 -67 -24t-45 -70q16 -12 38.5 -21
t51.5 -9q40 0 60.5 17t20.5 47q0 29 -16 44.5t-43 15.5z" />
    <glyph glyph-name="tthahalanttelu" horiz-adv-x="593" 
d="M35 236q0 78 33 137.5t91.5 93t136.5 33.5q79 0 137.5 -32.5t91.5 -91.5t33 -139q0 -74 -32 -130.5t-91 -87.5t-139 -31q-79 0 -137.5 31t-91 86.5t-32.5 130.5zM118 248q0 -81 45 -131t133 -50q89 0 134 49.5t45 125.5q0 51 -19.5 92.5t-59 66t-100.5 24.5t-100.5 -24.5
t-58.5 -64.5t-19 -88zM243 246q0 32 15 45t39 13q22 0 37.5 -13t15.5 -45t-15.5 -46t-37.5 -14q-24 0 -39 14t-15 46zM108 540q0 52 48 87q-56 37 -56 97q0 27 10 47t28 34q21 17 54.5 25t102.5 8h287v-75h-303q-34 0 -49 -2t-24 -7q-23 -11 -23 -37q0 -28 21 -39
q10 -5 26.5 -7.5t47.5 -2.5h137v-75h-141q-28 0 -43.5 -3.5t-23.5 -9.5q-16 -12 -16 -34q0 -24 16 -35q9 -7 23 -9t36 -2h37v-75h-38q-71 0 -114 27.5t-43 87.5z" />
    <glyph glyph-name="ddahalanttelu" horiz-adv-x="740" 
d="M546 -12q-78 0 -123 23t-71 62q-31 -53 -70 -69t-84 -16q-73 0 -118 55t-45 151q0 97 42.5 165t121 104.5t184.5 36.5q80 0 142 -20.5t117 -55.5l-49 -66q-51 33 -100.5 50t-115.5 17q-124 0 -191.5 -59t-67.5 -169q0 -70 24.5 -100t67.5 -30q47 0 73.5 32.5t30.5 85.5
h78q2 -32 13 -58.5t35 -40.5q-5 12 -8 26t-3 29q0 56 38.5 90t101.5 34t102.5 -37t39.5 -93q0 -76 -47.5 -111.5t-117.5 -35.5zM499 124q0 -17 5 -32.5t13 -27.5q15 -1 33 -1q81 0 81 66q0 31 -18.5 45t-47.5 14q-27 0 -46.5 -14.5t-19.5 -49.5zM195 540q0 52 48 87
q-56 37 -56 97q0 27 10 47t28 34q21 17 54.5 25t102.5 8h287v-75h-303q-34 0 -49 -2t-24 -7q-23 -11 -23 -37q0 -28 21 -39q10 -5 26.5 -7.5t47.5 -2.5h137v-75h-141q-28 0 -43.5 -3.5t-23.5 -9.5q-16 -12 -16 -34q0 -24 16 -35q9 -7 23 -9t36 -2h37v-75h-38
q-71 0 -114 27.5t-43 87.5z" />
    <glyph glyph-name="ddhahalanttelu" horiz-adv-x="740" 
d="M546 -12q-78 0 -123 23t-71 62q-31 -53 -70 -69t-84 -16q-73 0 -118 55t-45 151q0 97 42.5 165t121 104.5t184.5 36.5q80 0 142 -20.5t117 -55.5l-49 -66q-51 33 -100.5 50t-115.5 17q-124 0 -191.5 -59t-67.5 -169q0 -70 24.5 -100t67.5 -30q47 0 73.5 32.5t30.5 85.5
h78q2 -32 13 -58.5t35 -40.5q-5 12 -8 26t-3 29q0 56 38.5 90t101.5 34t102.5 -37t39.5 -93q0 -76 -47.5 -111.5t-117.5 -35.5zM499 124q0 -17 5 -32.5t13 -27.5q15 -1 33 -1q81 0 81 66q0 31 -18.5 45t-47.5 14q-27 0 -46.5 -14.5t-19.5 -49.5zM308 -125l7 141h75l8 -141
h-90zM195 540q0 52 48 87q-56 37 -56 97q0 27 10 47t28 34q21 17 54.5 25t102.5 8h287v-75h-303q-34 0 -49 -2t-24 -7q-23 -11 -23 -37q0 -28 21 -39q10 -5 26.5 -7.5t47.5 -2.5h137v-75h-141q-28 0 -43.5 -3.5t-23.5 -9.5q-16 -12 -16 -34q0 -24 16 -35q9 -7 23 -9t36 -2
h37v-75h-38q-71 0 -114 27.5t-43 87.5z" />
    <glyph glyph-name="nnahalanttelu" horiz-adv-x="826" 
d="M587 -12q-73 0 -111 37.5t-38 98.5q0 57 36.5 97.5t113.5 40.5q40 0 69 -11.5t51 -29.5v5v13q0 80 -36 131t-98 51q-52 0 -80 -31t-35 -72h-77q-6 26 -23.5 50.5t-49 40.5t-82.5 16q-45 0 -73 -18t-28 -53q0 -16 6.5 -29t21.5 -23q14 -10 39 -15.5t66 -5.5h43v-75h-57
q-80 0 -106 -22q-21 -18 -21 -53q0 -28 19 -48t65 -20q35 0 63.5 16.5t57.5 56.5l67 -50q-41 -49 -85.5 -73.5t-108.5 -24.5q-83 0 -123 39t-40 95q0 40 20.5 72.5t66.5 48.5q-42 19 -60.5 50.5t-18.5 69.5q0 62 50 99.5t135 37.5q70 0 114.5 -23t78.5 -67q26 42 65 66
t93 24q68 0 115.5 -35t73 -94.5t25.5 -134.5q0 -118 -52 -183t-152 -65zM520 127q0 -31 17.5 -49t53.5 -18q34 0 62 16t43 60q-18 23 -43.5 39.5t-60.5 16.5q-33 0 -52.5 -18t-19.5 -47zM439 540q0 52 48 87q-56 37 -56 97q0 27 10 47t28 34q21 17 54.5 25t102.5 8h287v-75
h-303q-34 0 -49 -2t-24 -7q-23 -11 -23 -37q0 -28 21 -39q10 -5 26.5 -7.5t47.5 -2.5h137v-75h-141q-28 0 -43.5 -3.5t-23.5 -9.5q-16 -12 -16 -34q0 -24 16 -35q9 -7 23 -9t36 -2h37v-75h-38q-71 0 -114 27.5t-43 87.5z" />
    <glyph glyph-name="tahalanttelu" horiz-adv-x="778" 
d="M394 -12q-121 0 -200.5 32.5t-118.5 89t-39 127.5q0 56 23.5 98.5t64.5 66t94 23.5q63 0 98.5 -34t35.5 -90q0 -61 -41.5 -97.5t-116.5 -36.5q-21 0 -39 3.5t-35 10.5q26 -57 97 -85.5t172 -28.5q90 0 146 19.5t86 50t40 63.5q-19 -16 -42.5 -24.5t-55.5 -8.5
q-58 0 -95 33.5t-37 92.5q0 54 35 85.5t92 31.5h5q-21 8 -47 15h-50q-80 0 -123.5 27.5t-43.5 87.5q0 52 48 87q-56 37 -56 97q0 27 10 47t28 34q21 17 54.5 25t102.5 8h287v-75h-303q-34 0 -49 -2t-24 -7q-23 -11 -23 -37q0 -28 21 -39q10 -5 26.5 -7.5t47.5 -2.5h137v-75
h-141q-28 0 -43.5 -3.5t-23.5 -9.5q-16 -12 -16 -34q0 -24 16 -35q9 -7 23 -9t36 -2h52q110 -34 172 -94t62 -161q0 -73 -36.5 -131.5t-113.5 -92t-199 -33.5zM510 293q0 -22 16 -39t50 -17q35 0 56.5 17t31.5 46q-11 23 -33.5 38.5t-54.5 15.5q-25 0 -45.5 -14.5
t-20.5 -46.5zM213 354q-42 0 -71 -27t-33 -69q16 -10 34 -15.5t39 -5.5q49 0 69.5 18t20.5 46q0 26 -15.5 39.5t-43.5 13.5z" />
    <glyph glyph-name="thahalanttelu" horiz-adv-x="706" 
d="M504 -12q-52 0 -87.5 19.5t-64.5 66.5q-31 -54 -70 -70t-84 -16q-73 0 -118 56t-45 156q0 89 39 156.5t111 105.5t172 38t170 -38.5t107 -106t37 -155.5q0 -103 -45 -157.5t-122 -54.5zM496 67q42 0 67 31t25 104q0 65 -24.5 115t-74 79t-125.5 29h-15q-112 0 -171.5 -61
t-59.5 -159q0 -75 24.5 -106.5t67.5 -31.5q45 0 69.5 28.5t34.5 73.5h78q9 -51 38 -76.5t66 -25.5zM300 268q0 32 15 45t39 13q22 0 37.5 -13t15.5 -45t-15.5 -46t-37.5 -14q-24 0 -39 14t-15 46zM308 -125l7 141h75l8 -141h-90zM169 540q0 52 48 87q-56 37 -56 97
q0 27 10 47t28 34q21 17 54.5 25t102.5 8h287v-75h-303q-34 0 -49 -2t-24 -7q-23 -11 -23 -37q0 -28 21 -39q10 -5 26.5 -7.5t47.5 -2.5h137v-75h-141q-28 0 -43.5 -3.5t-23.5 -9.5q-16 -12 -16 -34q0 -24 16 -35q9 -7 23 -9t36 -2h37v-75h-38q-71 0 -114 27.5t-43 87.5z
" />
    <glyph glyph-name="dahalanttelu" horiz-adv-x="706" 
d="M504 -12q-52 0 -87.5 19.5t-64.5 66.5q-31 -54 -70 -70t-84 -16q-73 0 -118 56t-45 156q0 89 39 156.5t111 105.5t172 38t170 -38.5t107 -106t37 -155.5q0 -103 -45 -157.5t-122 -54.5zM496 67q42 0 67 31t25 104q0 65 -24.5 115t-74 79t-125.5 29h-15q-112 0 -171.5 -61
t-59.5 -159q0 -75 24.5 -106.5t67.5 -31.5q45 0 72.5 32.5t31.5 85.5h78q4 -61 35.5 -89.5t68.5 -28.5zM169 540q0 52 48 87q-56 37 -56 97q0 27 10 47t28 34q21 17 54.5 25t102.5 8h287v-75h-303q-34 0 -49 -2t-24 -7q-23 -11 -23 -37q0 -28 21 -39q10 -5 26.5 -7.5
t47.5 -2.5h137v-75h-141q-28 0 -43.5 -3.5t-23.5 -9.5q-16 -12 -16 -34q0 -24 16 -35q9 -7 23 -9t36 -2h37v-75h-38q-71 0 -114 27.5t-43 87.5z" />
    <glyph glyph-name="dhahalanttelu" horiz-adv-x="706" 
d="M504 -12q-52 0 -87.5 19.5t-64.5 66.5q-31 -54 -70 -70t-84 -16q-73 0 -118 56t-45 156q0 89 39 156.5t111 105.5t172 38t170 -38.5t107 -106t37 -155.5q0 -103 -45 -157.5t-122 -54.5zM496 67q42 0 67 31t25 104q0 65 -24.5 115t-74 79t-125.5 29h-15q-112 0 -171.5 -61
t-59.5 -159q0 -75 24.5 -106.5t67.5 -31.5q45 0 72.5 32.5t31.5 85.5h78q4 -61 35.5 -89.5t68.5 -28.5zM308 -125l7 141h75l8 -141h-90zM169 540q0 52 48 87q-56 37 -56 97q0 27 10 47t28 34q21 17 54.5 25t102.5 8h287v-75h-303q-34 0 -49 -2t-24 -7q-23 -11 -23 -37
q0 -28 21 -39q10 -5 26.5 -7.5t47.5 -2.5h137v-75h-141q-28 0 -43.5 -3.5t-23.5 -9.5q-16 -12 -16 -34q0 -24 16 -35q9 -7 23 -9t36 -2h37v-75h-38q-71 0 -114 27.5t-43 87.5z" />
    <glyph glyph-name="nahalanttelu" horiz-adv-x="702" 
d="M472 -12q-47 0 -82 15.5t-66 48t-68 81.5q-32 43 -49.5 59.5t-42.5 16.5q-23 0 -38 -18.5t-15 -47.5q0 -35 12 -66t36 -63l-81 -27q-22 35 -35.5 72.5t-13.5 83.5q0 61 38 102t98 41q39 0 65.5 -13.5t49 -38t48.5 -59.5q30 -39 52 -62.5t45 -34.5t55 -11q51 0 77.5 32
t26.5 93q0 74 -35 123.5t-93.5 76.5t-127.5 33q-70 1 -112 28.5t-42 86.5q0 52 48 87q-56 37 -56 97q0 27 10 47t28 34q21 17 54.5 25t102.5 8h287v-75h-303q-34 0 -49 -2t-24 -7q-23 -11 -23 -37q0 -28 21 -39q10 -5 26.5 -7.5t47.5 -2.5h137v-75h-141q-28 0 -43.5 -3.5
t-23.5 -9.5q-16 -12 -16 -34q0 -24 16 -35q9 -7 23 -9t36 -2h34q88 -14 155.5 -54t106.5 -103t39 -149q0 -93 -49 -149.5t-146 -56.5z" />
    <glyph glyph-name="pahalanttelu" horiz-adv-x="711" 
d="M485 -12q-54 0 -92 22t-72 61q-27 -37 -59.5 -60t-86.5 -23q-53 0 -85 22t-46.5 56.5t-14.5 71.5q0 65 41 104.5t100 39.5q36 0 64 -12.5t55 -39t59 -69.5q27 -35 48 -56t43 -29.5t51 -8.5q50 0 76.5 32.5t26.5 93.5q0 58 -23 101.5t-63 75t-90 53.5l38 77
q62 -26 112 -70t79.5 -102.5t29.5 -129.5q0 -99 -50 -154.5t-141 -55.5zM107 136q0 -31 19.5 -52t53.5 -21q32 0 54 18t38 52q-29 39 -49.5 56.5t-50.5 17.5q-28 0 -46.5 -18t-18.5 -53zM100 540q0 52 48 87q-56 37 -56 97q0 27 10 47t28 34q21 17 54.5 25t102.5 8h287v-75
h-303q-34 0 -49 -2t-24 -7q-23 -11 -23 -37q0 -28 21 -39q10 -5 26.5 -7.5t47.5 -2.5h137v-75h-141q-28 0 -43.5 -3.5t-23.5 -9.5q-16 -12 -16 -34q0 -24 16 -35q9 -7 23 -9t36 -2h37v-75h-38q-71 0 -114 27.5t-43 87.5z" />
    <glyph glyph-name="phahalanttelu" horiz-adv-x="711" 
d="M485 -12q-54 0 -92 22t-72 61q-27 -37 -59.5 -60t-86.5 -23q-53 0 -85 22t-46.5 56.5t-14.5 71.5q0 65 41 104.5t100 39.5q36 0 64 -12.5t55 -39t59 -69.5q27 -35 48 -56t43 -29.5t51 -8.5q50 0 76.5 32.5t26.5 93.5q0 58 -23 101.5t-63 75t-90 53.5l38 77
q62 -26 112 -70t79.5 -102.5t29.5 -129.5q0 -99 -50 -154.5t-141 -55.5zM107 136q0 -31 19.5 -52t53.5 -21q32 0 54 18t38 52q-29 39 -49.5 56.5t-50.5 17.5q-28 0 -46.5 -18t-18.5 -53zM280 -125l7 141h75l8 -141h-90zM100 540q0 52 48 87q-56 37 -56 97q0 27 10 47t28 34
q21 17 54.5 25t102.5 8h287v-75h-303q-34 0 -49 -2t-24 -7q-23 -11 -23 -37q0 -28 21 -39q10 -5 26.5 -7.5t47.5 -2.5h137v-75h-141q-28 0 -43.5 -3.5t-23.5 -9.5q-16 -12 -16 -34q0 -24 16 -35q9 -7 23 -9t36 -2h37v-75h-38q-71 0 -114 27.5t-43 87.5z" />
    <glyph glyph-name="bahalanttelu" horiz-adv-x="750" 
d="M533 -12q-52 0 -89 19t-69 67q-37 -52 -76.5 -69t-93.5 -17q-55 0 -91.5 19.5t-54.5 52t-18 70.5q0 61 37.5 97t110.5 62q41 15 65 32t24 50q0 23 -16.5 39.5t-58.5 16.5q-43 0 -64 -16.5t-21 -45.5q0 -13 3.5 -24t6.5 -18l-75 -21q-17 31 -17 73q0 32 17 60.5t54 46.5
t96 18q60 0 94 -20t48.5 -50t14.5 -60q0 -57 -33.5 -89t-99.5 -56q-53 -20 -78.5 -40.5t-25.5 -53.5q0 -29 20.5 -46.5t63.5 -17.5q62 0 93.5 32.5t35.5 85.5h78q5 -61 37 -89.5t74 -28.5q107 0 107 126q0 84 -44.5 139.5t-118.5 93.5q-60 4 -96 31.5t-36 82.5q0 52 48 87
q-56 37 -56 97q0 27 10 47t28 34q21 17 54.5 25t102.5 8h287v-75h-303q-34 0 -49 -2t-24 -7q-23 -11 -23 -37q0 -28 21 -39q10 -5 26.5 -7.5t47.5 -2.5h137v-75h-141q-28 0 -43.5 -3.5t-23.5 -9.5q-16 -12 -16 -34q0 -24 16 -35q9 -7 23 -9t36 -2h5q100 -46 157.5 -124.5
t57.5 -177.5q0 -101 -49.5 -155.5t-132.5 -54.5z" />
    <glyph glyph-name="bhahalanttelu" horiz-adv-x="750" 
d="M533 -12q-52 0 -89 19t-69 67q-37 -52 -76.5 -69t-93.5 -17q-55 0 -91.5 19.5t-54.5 52t-18 70.5q0 61 37.5 97t110.5 62q41 15 65 32t24 50q0 23 -16.5 39.5t-58.5 16.5q-43 0 -64 -16.5t-21 -45.5q0 -13 3.5 -24t6.5 -18l-75 -21q-17 31 -17 73q0 32 17 60.5t54 46.5
t96 18q60 0 94 -20t48.5 -50t14.5 -60q0 -57 -33.5 -89t-99.5 -56q-53 -20 -78.5 -40.5t-25.5 -53.5q0 -29 20.5 -46.5t63.5 -17.5q62 0 93.5 32.5t35.5 85.5h78q5 -61 37 -89.5t74 -28.5q107 0 107 126q0 84 -44.5 139.5t-118.5 93.5q-60 4 -96 31.5t-36 82.5q0 52 48 87
q-56 37 -56 97q0 27 10 47t28 34q21 17 54.5 25t102.5 8h287v-75h-303q-34 0 -49 -2t-24 -7q-23 -11 -23 -37q0 -28 21 -39q10 -5 26.5 -7.5t47.5 -2.5h137v-75h-141q-28 0 -43.5 -3.5t-23.5 -9.5q-16 -12 -16 -34q0 -24 16 -35q9 -7 23 -9t36 -2h5q100 -46 157.5 -124.5
t57.5 -177.5q0 -101 -49.5 -155.5t-132.5 -54.5zM329 -125l7 141h75l8 -141h-90z" />
    <glyph glyph-name="mahalanttelu" horiz-adv-x="1058" 
d="M481 -12q-52 0 -89 22t-71 61q-28 -37 -60 -60t-86 -23q-53 0 -85 22t-46.5 56.5t-14.5 71.5q0 65 41 104.5t100 39.5q36 0 64 -12.5t55 -39t59 -69.5q27 -35 48 -56t42 -29.5t49 -8.5q52 0 79 32t27 93q0 74 -35 123.5t-93.5 76.5t-127.5 33q-70 1 -111.5 28.5
t-41.5 86.5q0 52 48 87q-56 37 -56 97q0 27 10 47t28 34q21 17 54.5 25t102.5 8h287v-75h-303q-34 0 -49 -2t-24 -7q-23 -11 -23 -37q0 -28 21 -39q10 -5 26.5 -7.5t47.5 -2.5h137v-75h-141q-28 0 -43.5 -3.5t-23.5 -9.5q-16 -12 -16 -34q0 -24 16 -35q9 -7 23 -9t36 -2h33
q88 -14 155.5 -54t106.5 -103t39 -149q0 -59 -21 -106t-64.5 -73.5t-109.5 -26.5zM107 136q0 -31 19.5 -52t53.5 -21q32 0 54 18t38 52q-29 39 -49.5 56.5t-50.5 17.5q-28 0 -46.5 -18t-18.5 -53zM828 -12q-67 0 -117.5 34t-89.5 89l40 65q42 -55 83.5 -82t90.5 -27
q51 0 78 32.5t27 93.5q0 58 -23.5 101.5t-63 75t-89.5 53.5l37 77q62 -26 112 -70t80 -102t30 -129q0 -99 -50 -155t-145 -56z" />
    <glyph glyph-name="yahalanttelu" horiz-adv-x="1286" 
d="M35 236q0 78 33 137.5t91.5 93t136.5 33.5q79 0 137.5 -32.5t91.5 -91.5t33 -139q0 -37 -8 -71q39 -50 79 -74.5t87 -24.5q51 0 78 32.5t27 93.5q0 83 -45 139.5t-122 92.5q-63 4 -101 31.5t-38 83.5q0 52 48 87q-56 37 -56 97q0 27 10 47t28 34q21 17 54.5 25t102.5 8
h287v-75h-303q-34 0 -49 -2t-24 -7q-23 -11 -23 -37q0 -28 21 -39q10 -5 26.5 -7.5t47.5 -2.5h137v-75h-141q-28 0 -43.5 -3.5t-23.5 -9.5q-16 -12 -16 -34q0 -24 16 -35q9 -7 23 -9t36 -2h16q100 -46 157.5 -124.5t57.5 -176.5q0 -21 -2 -40q75 -92 161 -92q52 0 78.5 33
t26.5 94q0 58 -23.5 101t-63 74.5t-89.5 53.5l37 77q62 -26 112 -69.5t80 -101.5t30 -129q0 -99 -50 -155.5t-145 -56.5q-55 0 -99.5 24t-79.5 64q-23 -43 -65.5 -65.5t-102.5 -22.5t-107.5 28.5t-84.5 75.5q-33 -49 -89.5 -76.5t-131.5 -27.5q-79 0 -137.5 31t-91 86.5
t-32.5 130.5zM118 245q0 -78 45 -128t133 -50q89 0 134 48.5t45 124.5q0 50 -19.5 91t-59 65.5t-100.5 24.5t-100.5 -24.5t-58.5 -64.5t-19 -87z" />
    <glyph glyph-name="rahalanttelu" horiz-adv-x="593" 
d="M35 236q0 78 33 137.5t91.5 93t136.5 33.5q79 0 137.5 -32.5t91.5 -91.5t33 -139q0 -74 -32 -130.5t-91 -87.5t-139 -31q-79 0 -137.5 31t-91 86.5t-32.5 130.5zM118 248q0 -81 45 -131t133 -50q89 0 134 49.5t45 125.5q0 51 -19.5 92.5t-59 66t-100.5 24.5t-100.5 -24.5
t-58.5 -64.5t-19 -88zM108 540q0 52 48 87q-56 37 -56 97q0 27 10 47t28 34q21 17 54.5 25t102.5 8h287v-75h-303q-34 0 -49 -2t-24 -7q-23 -11 -23 -37q0 -28 21 -39q10 -5 26.5 -7.5t47.5 -2.5h137v-75h-141q-28 0 -43.5 -3.5t-23.5 -9.5q-16 -12 -16 -34q0 -24 16 -35
q9 -7 23 -9t36 -2h37v-75h-38q-71 0 -114 27.5t-43 87.5z" />
    <glyph glyph-name="rrahalanttelu" horiz-adv-x="822" 
d="M570 -12q-57 0 -93 19.5t-65 65.5q-32 -53 -71 -69t-87 -16q-74 0 -122 34.5t-71.5 94t-23.5 133.5q0 82 25.5 137.5t68.5 84t95 28.5q60 0 96 -34t36 -93q0 -57 -30 -92h184q-26 18 -39 41.5t-13 58.5q0 29 14.5 56t45.5 45t81 18q56 0 97 -31t64 -86t23 -128
q0 -84 -27.5 -144t-76 -91.5t-111.5 -31.5zM221 429q-36 0 -62.5 -26t-36.5 -75q14 -10 32.5 -16.5t43.5 -6.5q40 0 60.5 17t20.5 47q0 29 -16 44.5t-42 15.5zM451 169q11 -49 40 -75.5t78 -26.5q63 0 98.5 50.5t35.5 135.5q0 48 -11 87t-33.5 62t-58.5 23q-22 0 -41.5 -14
t-19.5 -46q0 -36 25 -57t68 -29v-72h-341v46q-36 -18 -88 -18q-25 0 -47.5 6.5t-40.5 16.5v-9q0 -43 12.5 -85t42 -69.5t81.5 -27.5q59 0 86 28.5t37 73.5h77zM397 540q0 52 48 87q-56 37 -56 97q0 27 10 47t28 34q21 17 54.5 25t102.5 8h287v-75h-303q-34 0 -49 -2t-24 -7
q-23 -11 -23 -37q0 -28 21 -39q10 -5 26.5 -7.5t47.5 -2.5h137v-75h-141q-28 0 -43.5 -3.5t-23.5 -9.5q-16 -12 -16 -34q0 -24 16 -35q9 -7 23 -9t36 -2h37v-75h-38q-71 0 -114 27.5t-43 87.5z" />
    <glyph glyph-name="lahalanttelu" horiz-adv-x="709" 
d="M356 -12q-105 0 -176.5 36t-108 99.5t-36.5 145.5q0 74 25.5 125.5t68.5 78.5t96 27q59 0 95.5 -34t36.5 -93q0 -61 -38 -99.5t-118 -38.5q-25 0 -47 6.5t-40 16.5q2 -52 28.5 -95t78.5 -69.5t132 -26.5q108 0 173 44.5t65 141.5q0 58 -27.5 102.5t-67.5 69.5
q-71 0 -113.5 27.5t-42.5 87.5q0 52 48 87q-56 37 -56 97q0 27 10 47t28 34q21 17 54.5 25t102.5 8h287v-75h-303q-34 0 -49 -2t-24 -7q-23 -11 -23 -37q0 -28 21 -39q10 -5 26.5 -7.5t47.5 -2.5h137v-75h-141q-28 0 -43.5 -3.5t-23.5 -9.5q-16 -12 -16 -34q0 -24 16 -35
q9 -7 23 -9t36 -2h39q71 -52 104 -114t33 -136q0 -73 -32 -132.5t-102 -94.5t-184 -35zM220 429q-39 0 -66 -26.5t-36 -73.5q14 -10 33.5 -17t44.5 -7q41 0 61.5 17t20.5 47q0 29 -16 44.5t-42 15.5z" />
    <glyph glyph-name="llahalanttelu" horiz-adv-x="645" 
d="M329 -12q-34 0 -68.5 9t-58 31.5t-23.5 63.5q0 21 9.5 39.5t31.5 33.5q-87 13 -139 51t-52 105q0 31 17.5 58.5t52 45t84.5 17.5q54 0 87 -18t47.5 -45.5t14.5 -55.5q0 -32 -17.5 -56t-47.5 -42q19 -2 41 -3q29 -2 50 -7q92 7 132.5 36t40.5 72q0 38 -24 62.5t-69 39.5
h-28q-71 0 -114 27.5t-43 87.5q0 52 48 87q-56 37 -56 97q0 27 10 47t28 34q21 17 54.5 25t102.5 8h287v-75h-303q-34 0 -49 -2t-24 -7q-23 -11 -23 -37q0 -28 21 -39q10 -5 26.5 -7.5t47.5 -2.5h137v-75h-141q-28 0 -43.5 -3.5t-23.5 -9.5q-16 -12 -16 -34q0 -24 16 -35
q9 -7 23 -9t36 -2h41q68 -19 115 -62t47 -114q0 -58 -38 -101.5t-128 -61.5q15 -12 25 -29.5t10 -37.5q0 -40 -22.5 -63.5t-57.5 -33t-74 -9.5zM109 315q0 -18 10.5 -37.5t53.5 -33.5q36 10 58 28.5t22 43.5q0 22 -16 38.5t-56 16.5q-35 0 -53.5 -16.5t-18.5 -39.5zM257 97
q0 -23 22.5 -32.5t52.5 -9.5t51.5 9.5t21.5 32.5q0 19 -18 34t-57 21q-44 -8 -58.5 -23t-14.5 -32z" />
    <glyph glyph-name="vahalanttelu" horiz-adv-x="711" 
d="M481 -12q-52 0 -89 22t-71 61q-28 -37 -60 -60t-86 -23q-53 0 -85 22t-46.5 56.5t-14.5 71.5q0 65 41 104.5t100 39.5q36 0 64 -12.5t55 -39t59 -69.5q27 -35 48 -56t42 -29.5t49 -8.5q52 0 79 32t27 93q0 74 -35 123.5t-93.5 76.5t-127.5 33q-70 1 -111.5 28.5
t-41.5 86.5q0 52 48 87q-56 37 -56 97q0 27 10 47t28 34q21 17 54.5 25t102.5 8h287v-75h-303q-34 0 -49 -2t-24 -7q-23 -11 -23 -37q0 -28 21 -39q10 -5 26.5 -7.5t47.5 -2.5h137v-75h-141q-28 0 -43.5 -3.5t-23.5 -9.5q-16 -12 -16 -34q0 -24 16 -35q9 -7 23 -9t36 -2h33
q88 -14 155.5 -54t106.5 -103t39 -149q0 -59 -21 -106t-64.5 -73.5t-109.5 -26.5zM107 136q0 -31 19.5 -52t53.5 -21q32 0 54 18t38 52q-29 39 -49.5 56.5t-50.5 17.5q-28 0 -46.5 -18t-18.5 -53z" />
    <glyph glyph-name="shahalanttelu" horiz-adv-x="550" 
d="M361 -12q-55 0 -88.5 19t-49 49t-15.5 63q0 51 32.5 86.5t75.5 65.5q-43 14 -92 14q-64 0 -88.5 -21.5t-24.5 -56.5q0 -20 5.5 -37t10.5 -29l-76 -22q-9 20 -15.5 46t-6.5 48q0 37 17.5 70t58.5 54t112 21q43 0 83 -8.5t78 -28.5q29 27 29 54q0 19 -8.5 31t-24.5 19h-51
q-71 0 -114 27.5t-43 87.5q0 52 48 87q-56 37 -56 97q0 27 10 47t28 34q21 17 54.5 25t102.5 8h287v-75h-303q-34 0 -49 -2t-24 -7q-23 -11 -23 -37q0 -28 21 -39q10 -5 26.5 -7.5t47.5 -2.5h137v-75h-141q-28 0 -43.5 -3.5t-23.5 -9.5q-16 -12 -16 -34q0 -24 16 -35
q9 -7 23 -9t36 -2h72q38 -13 64.5 -42.5t26.5 -67.5q0 -34 -13.5 -59.5t-35.5 -46.5q82 -61 82 -159q0 -64 -42.5 -100.5t-116.5 -36.5zM289 122q0 -22 15.5 -40.5t57.5 -18.5q76 0 76 67q0 33 -15 60.5t-42 47.5q-49 -37 -70.5 -61t-21.5 -55z" />
    <glyph glyph-name="ssahalanttelu" horiz-adv-x="713" 
d="M485 -12q-54 0 -92 22t-72 61q-27 -37 -59.5 -60t-86.5 -23q-53 0 -85 22t-46.5 56.5t-14.5 71.5q0 65 41 104.5t100 39.5q36 0 64 -12.5t55 -39t59 -69.5q27 -35 48 -56t43 -29.5t51 -8.5q50 0 76.5 32.5t26.5 92.5q0 58 -23 101.5t-63 75.5t-90 54l38 77
q62 -26 112 -70t79.5 -102.5t29.5 -129.5q0 -115 -67 -170q-2 -10 -2 -20q0 -25 13 -40t35 -15q19 0 33.5 6.5t33.5 22.5l47 -62q-28 -23 -53.5 -34t-63.5 -11q-63 0 -95 34.5t-35 81.5q-17 -3 -37 -3zM107 136q0 -31 19.5 -52t53.5 -21q32 0 54 18t38 52q-29 39 -49.5 56.5
t-50.5 17.5q-28 0 -46.5 -18t-18.5 -53zM100 540q0 52 48 87q-56 37 -56 97q0 27 10 47t28 34q21 17 54.5 25t102.5 8h287v-75h-303q-34 0 -49 -2t-24 -7q-23 -11 -23 -37q0 -28 21 -39q10 -5 26.5 -7.5t47.5 -2.5h137v-75h-141q-28 0 -43.5 -3.5t-23.5 -9.5
q-16 -12 -16 -34q0 -24 16 -35q9 -7 23 -9t36 -2h37v-75h-38q-71 0 -114 27.5t-43 87.5z" />
    <glyph glyph-name="sahalanttelu" horiz-adv-x="702" 
d="M472 -12q-47 0 -82 15.5t-66 48t-68 81.5q-32 43 -49.5 59.5t-42.5 16.5q-23 0 -38 -18.5t-15 -47.5q0 -35 12 -66t36 -63l-81 -27q-22 35 -35.5 72.5t-13.5 83.5q0 61 38 102t98 41q39 0 65.5 -13.5t49 -38t48.5 -59.5q30 -39 52 -62.5t45 -34.5t55 -11q50 0 77 32.5
t27 93.5q0 58 -23 101.5t-63 75t-90 53.5l38 77q62 -26 112 -70t79.5 -102.5t29.5 -129.5q0 -98 -50 -154t-145 -56zM100 540q0 52 48 87q-56 37 -56 97q0 27 10 47t28 34q21 17 54.5 25t102.5 8h287v-75h-303q-34 0 -49 -2t-24 -7q-23 -11 -23 -37q0 -28 21 -39
q10 -5 26.5 -7.5t47.5 -2.5h137v-75h-141q-28 0 -43.5 -3.5t-23.5 -9.5q-16 -12 -16 -34q0 -24 16 -35q9 -7 23 -9t36 -2h37v-75h-38q-71 0 -114 27.5t-43 87.5z" />
    <glyph glyph-name="hahalanttelu" horiz-adv-x="1033" 
d="M485 -12q-54 0 -92 22t-72 61q-27 -37 -59.5 -60t-86.5 -23q-53 0 -85 22t-46.5 56.5t-14.5 71.5q0 65 41 104.5t100 39.5q36 0 64 -12.5t55 -39t59 -69.5q27 -35 48 -56t43 -29.5t51 -8.5q50 0 76.5 32t26.5 90q0 55 -23.5 99t-63.5 78.5t-88 58.5l36 75h352
q65 0 101.5 -8t63.5 -30q21 -16 34 -43.5t13 -65.5q0 -63 -38 -98t-103 -35q-50 0 -80 19t-43.5 48t-13.5 57q0 25 6 44.5t16 36.5h-208q53 -40 87.5 -99.5t34.5 -132.5q0 -95 -49.5 -150t-141.5 -55zM813 353q0 -30 17.5 -48.5t50.5 -18.5q35 0 49.5 18.5t14.5 45.5
q0 42 -25.5 58.5t-71.5 16.5h-9q-26 -34 -26 -72zM107 136q0 -31 19.5 -52t53.5 -21q32 0 54 18t38 52q-29 39 -49.5 56.5t-50.5 17.5q-28 0 -46.5 -18t-18.5 -53zM100 540q0 52 48 87q-56 37 -56 97q0 27 10 47t28 34q21 17 54.5 25t102.5 8h287v-75h-303q-34 0 -49 -2
t-24 -7q-23 -11 -23 -37q0 -28 21 -39q10 -5 26.5 -7.5t47.5 -2.5h137v-75h-141q-28 0 -43.5 -3.5t-23.5 -9.5q-16 -12 -16 -34q0 -24 16 -35q9 -7 23 -9t36 -2h37v-75h-38q-71 0 -114 27.5t-43 87.5z" />
    <glyph glyph-name="kassahalanttelu" horiz-adv-x="522" 
d="M264 -12q-97 0 -162.5 40t-83.5 118l86 23q14 -46 49.5 -74t113.5 -28q79 0 110 20.5t31 53.5q0 30 -23.5 49t-87.5 23l-65 5q-52 4 -89.5 12.5t-61.5 27.5q-21 16 -32.5 40.5t-11.5 58.5q0 62 53.5 102.5t161.5 40.5q66 0 110.5 -12.5t74 -43t47.5 -84.5l-86 -22
q-13 44 -45 65.5t-101 21.5q-76 0 -104 -19t-28 -48q0 -27 22.5 -42.5t88.5 -20.5l77 -5q52 -4 84.5 -15t53.5 -28q23 -19 34 -46t11 -59q0 -75 -57 -114.5t-170 -39.5zM91 540q0 52 48 87q-56 37 -56 97q0 27 10 47t28 34q21 17 54.5 25t102.5 8h287v-75h-303q-34 0 -49 -2
t-24 -7q-23 -11 -23 -37q0 -28 21 -39q10 -5 26.5 -7.5t47.5 -2.5h137v-75h-141q-28 0 -43.5 -3.5t-23.5 -9.5q-16 -12 -16 -34q0 -24 16 -35q9 -7 23 -9t36 -2h37v-75h-38q-71 0 -114 27.5t-43 87.5zM375 -202q-41 0 -68 19.5t-46 53.5q-20 -36 -46 -54.5t-68 -18.5
q-61 0 -94.5 39t-33.5 102q0 18 1.5 31t3.5 23l70 -8q-2 -7 -3 -18.5t-1 -22.5q0 -32 15.5 -53.5t46.5 -21.5q32 0 51.5 22.5t23.5 62.5h68q5 -39 24.5 -62t53.5 -23q29 0 44 21t15 55q0 11 -1 22t-3 18l69 10q3 -12 4.5 -25t1.5 -31q0 -53 -26 -91q1 -19 11.5 -30t31.5 -11
q11 0 20.5 2t16.5 5l20 -64q-16 -7 -31.5 -10.5t-35.5 -3.5q-36 0 -61 17t-34 50q-19 -5 -40 -5z" />
    <glyph glyph-name="kaavoweltelu" horiz-adv-x="867" 
d="M264 -12q-97 0 -162.5 40t-83.5 118l86 23q14 -46 49.5 -74t113.5 -28q79 0 110 20.5t31 53.5q0 30 -23.5 49t-87.5 23l-65 5q-52 4 -89.5 12.5t-61.5 27.5q-21 16 -32.5 40.5t-11.5 58.5q0 21 8 38t21 30h-28v75h602q65 0 101.5 -8t63.5 -30q21 -16 34 -43.5t13 -65.5
q0 -63 -38 -98t-103 -35q-50 0 -80 19t-43.5 48t-13.5 57q0 25 6 44.5t16 36.5h-149q22 -25 37 -65l-86 -22q-13 44 -45 65.5t-101 21.5q-76 0 -104 -19t-28 -48q0 -27 22.5 -42.5t88.5 -20.5l77 -5q52 -4 84.5 -15t53.5 -28q23 -19 34 -46t11 -59q0 -75 -57 -114.5
t-170 -39.5zM647 353q0 -30 17.5 -48.5t50.5 -18.5q35 0 49.5 18.5t14.5 45.5q0 42 -25.5 58.5t-71.5 16.5h-9q-26 -34 -26 -72z" />
    <glyph glyph-name="khaavoweltelu" horiz-adv-x="1077" 
d="M518 -12q-51 0 -92 16t-87 47q-32 -30 -74 -46.5t-90 -16.5q-55 0 -86.5 16.5t-45.5 42.5t-14 54q0 46 35.5 77t100.5 31q40 0 78 -15t81 -43q16 39 16 93q0 40 -7.5 75t-28.5 63q2 -10 2 -21q0 -55 -36.5 -88.5t-97.5 -33.5q-36 0 -67 15t-50 44t-19 70q0 55 41.5 93.5
t113.5 38.5q65 0 109 -24t70.5 -62t38.5 -82t12 -83t-9 -74t-26 -65q32 -21 62.5 -32t71.5 -11q59 0 88 32t29 93q0 56 -22.5 99.5t-60.5 76.5t-85 57h-61v75h442q65 0 101.5 -8t63.5 -30q21 -16 34 -43.5t13 -65.5q0 -63 -38 -98t-103 -35q-50 0 -80 19t-43.5 48t-13.5 57
q0 25 6 44.5t16 36.5h-201q55 -41 85 -99t30 -128q0 -99 -55 -154.5t-147 -55.5zM112 369q0 -27 15.5 -44t46.5 -17q30 0 49.5 14.5t19.5 48.5q0 30 -15 56q-19 5 -40 5q-37 0 -56.5 -18t-19.5 -45zM857 353q0 -30 17.5 -48.5t50.5 -18.5q35 0 49.5 18.5t14.5 45.5
q0 42 -25.5 58.5t-71.5 16.5h-9q-26 -34 -26 -72zM105 102q0 -17 17 -28t54 -11q63 0 103 30q-30 22 -57 33.5t-58 11.5q-32 0 -45.5 -11t-13.5 -25zM298 -125l7 141h75l8 -141h-90z" />
    <glyph glyph-name="gaavoweltelu" horiz-adv-x="921" 
d="M765 220q-50 0 -80 19t-43.5 48t-13.5 57q0 25 6 44.5t16 36.5h-166q64 -63 64 -170q0 -63 -12 -111t-29.5 -85t-36.5 -67l-83 37q19 28 37 58t29.5 68t11.5 90q0 49 -16 89.5t-53 65.5t-102 25q-76 0 -121 -47.5t-45 -131.5q0 -68 22 -119.5t56 -97.5l-83 -37
q-34 52 -56 116t-22 137q0 53 18 99.5t54 80.5h-73v75h650q65 0 101.5 -8t63.5 -30q21 -16 34 -43.5t13 -65.5q0 -63 -38 -98t-103 -35zM701 353q0 -30 17.5 -48.5t50.5 -18.5q35 0 49.5 18.5t14.5 45.5q0 42 -25.5 58.5t-71.5 16.5h-9q-26 -34 -26 -72z" />
    <glyph glyph-name="ghaavoweltelu" horiz-adv-x="1379" 
d="M485 -12q-54 0 -92 22t-72 61q-27 -37 -59.5 -60t-86.5 -23q-53 0 -85 22t-46.5 56.5t-14.5 71.5q0 65 41 104.5t100 39.5q36 0 64 -12.5t55 -39t59 -69.5q27 -35 48 -56t43 -29.5t51 -8.5q50 0 76.5 32.5t26.5 93.5q0 58 -23 101.5t-63 75t-90 53.5l38 77
q62 -26 112 -70t79.5 -102.5t29.5 -129.5q0 -21 -2 -39q38 -47 76.5 -69.5t83.5 -22.5q51 0 78 32t27 90q0 55 -23.5 99t-63.5 78.5t-88 58.5l36 75h352q64 0 100.5 -8t65.5 -31q21 -16 33.5 -43t12.5 -65q0 -63 -38 -98t-103 -35q-49 0 -79 19t-44 48t-14 58q0 24 6 43.5
t16 36.5h-208q53 -40 87.5 -99t34.5 -132q0 -95 -50 -150.5t-145 -55.5q-55 0 -99 23.5t-80 63.5q-48 -87 -163 -87zM1159 353q0 -30 17.5 -48.5t50.5 -18.5q35 0 49.5 18.5t14.5 45.5q0 42 -25.5 58.5t-71.5 16.5h-9q-26 -34 -26 -72zM107 136q0 -31 19.5 -52t53.5 -21
q32 0 54 18t38 52q-29 39 -49.5 56.5t-50.5 17.5q-28 0 -46.5 -18t-18.5 -53zM280 -125l7 141h75l8 -141h-90zM197 425q-29 0 -55.5 11t-48.5 41.5t-38 86.5l83 27q15 -55 29 -73t36 -18q20 0 37.5 12.5t49.5 52.5l31 40q34 44 62.5 70t60.5 38t76 12l6 -77
q-35 -2 -58.5 -11t-43 -28.5t-45.5 -52.5l-23 -30q-42 -54 -78 -77.5t-81 -23.5z" />
    <glyph glyph-name="ngaavoweltelu" horiz-adv-x="1037" 
d="M530 -12q-53 0 -90 20t-65 66q-37 -52 -76.5 -69t-93.5 -17q-55 0 -91.5 19.5t-54.5 52t-18 70.5q0 61 37.5 97t110.5 62q41 15 65 32t24 50q0 23 -16.5 39.5t-58.5 16.5q-43 0 -64 -16.5t-21 -45.5q0 -13 3.5 -24t6.5 -18l-75 -21q-17 31 -17 73q0 32 17 60.5t54 46.5
t96 18q60 0 94 -20t48.5 -50t14.5 -60v-13h99l-7 143h93l-7 -143h127v-72h-335q-16 -19 -42 -33t-61 -27q-53 -20 -78.5 -40.5t-25.5 -53.5q0 -29 20.5 -46.5t63.5 -17.5q62 0 93.5 32.5t35.5 85.5h78q4 -61 36 -89.5t77 -28.5q50 0 70.5 20t20.5 55q0 23 -7 42t-18 37
l74 31q15 -22 24.5 -53.5t9.5 -63.5q0 -69 -44.5 -108t-126.5 -39zM881 256q-50 0 -80 19t-43.5 48t-13.5 57q0 25 6 44.5t16 36.5h-404v75h448q65 0 101.5 -8t63.5 -30q21 -16 34 -43.5t13 -65.5q0 -63 -38 -98t-103 -35zM817 389q0 -30 17.5 -48.5t50.5 -18.5
q35 0 49.5 18.5t14.5 45.5q0 42 -25.5 58.5t-71.5 16.5h-9q-26 -34 -26 -72z" />
    <glyph glyph-name="caavoweltelu" horiz-adv-x="1103" 
d="M543 -12q-58 0 -92.5 20t-65.5 66q-32 -51 -70.5 -68.5t-86.5 -17.5q-73 0 -117.5 43t-44.5 113q0 28 14 59.5t45 54.5h-100v74h234v-71q-60 -13 -86 -43t-26 -69q0 -37 23 -59.5t63 -22.5q50 0 79.5 32.5t33.5 85.5h77q5 -61 39 -89.5t75 -28.5q27 0 51 10t39 37t15 78
q0 55 -20.5 95.5t-52.5 68.5t-68 44.5t-69 24.5h-223v75h667q65 0 101.5 -8t63.5 -30q21 -16 34 -43.5t13 -65.5q0 -63 -38 -98t-103 -35q-50 0 -80 19t-43.5 48t-13.5 57q0 25 6 44.5t16 36.5h-230q28 -17 56 -48.5t47.5 -77t19.5 -105.5q0 -70 -24 -115.5t-65 -68
t-93 -22.5zM883 353q0 -30 17.5 -48.5t50.5 -18.5q35 0 49.5 18.5t14.5 45.5q0 42 -25.5 58.5t-71.5 16.5h-9q-26 -34 -26 -72z" />
    <glyph glyph-name="chaavoweltelu" horiz-adv-x="1103" 
d="M543 -12q-58 0 -92.5 20t-65.5 66q-32 -51 -70.5 -68.5t-86.5 -17.5q-73 0 -117.5 43t-44.5 113q0 28 14 59.5t45 54.5h-100v74h234v-71q-60 -13 -86 -43t-26 -69q0 -37 23 -59.5t63 -22.5q50 0 79.5 32.5t33.5 85.5h77q5 -61 39 -89.5t75 -28.5q27 0 51 10t39 37t15 78
q0 55 -20.5 95.5t-52.5 68.5t-68 44.5t-69 24.5h-223v75h667q65 0 101.5 -8t63.5 -30q21 -16 34 -43.5t13 -65.5q0 -63 -38 -98t-103 -35q-50 0 -80 19t-43.5 48t-13.5 57q0 25 6 44.5t16 36.5h-230q28 -17 56 -48.5t47.5 -77t19.5 -105.5q0 -70 -24 -115.5t-65 -68
t-93 -22.5zM883 353q0 -30 17.5 -48.5t50.5 -18.5q35 0 49.5 18.5t14.5 45.5q0 42 -25.5 58.5t-71.5 16.5h-9q-26 -34 -26 -72zM340 -125l7 141h75l8 -141h-90z" />
    <glyph glyph-name="jaavoweltelu" horiz-adv-x="1046" 
d="M530 -12q-53 0 -90 20t-65 66q-37 -52 -76.5 -69t-93.5 -17q-55 0 -91.5 19.5t-54.5 52t-18 70.5q0 61 37.5 97t110.5 62q41 15 65 32t24 50q0 23 -16.5 39.5t-58.5 16.5q-43 0 -64 -16.5t-21 -45.5q0 -13 3.5 -24t6.5 -18l-75 -21q-17 31 -17 73q0 32 17 60.5t54 46.5
t96 18q54 0 87.5 -17t49.5 -43.5t19 -54.5q31 -29 73.5 -43.5t81.5 -14.5q78 0 78 49q0 19 -10.5 31t-25.5 18h-104v75h367q65 0 101.5 -8t63.5 -30q21 -16 34 -43.5t13 -65.5q0 -63 -38 -98t-103 -35q-50 0 -80 19t-43.5 48t-13.5 57q0 25 6 44.5t16 36.5h-112
q10 -21 10 -48q0 -53 -41.5 -89t-119.5 -36q-54 0 -96 15.5t-71 38.5q-15 -27 -44.5 -46t-73.5 -35q-53 -20 -78.5 -40.5t-25.5 -53.5q0 -29 20.5 -46.5t63.5 -17.5q62 0 93.5 32.5t35.5 85.5h78q4 -61 36 -89.5t77 -28.5q47 0 69 20t22 55q0 23 -7 42t-18 37l74 31
q15 -22 24.5 -53.5t9.5 -63.5q0 -69 -44.5 -108t-126.5 -39zM826 353q0 -30 17.5 -48.5t50.5 -18.5q35 0 49.5 18.5t14.5 45.5q0 42 -25.5 58.5t-71.5 16.5h-9q-26 -34 -26 -72z" />
    </font>
</defs>
</svg>
